<?xml version="1.0" encoding="utf-8"?>
<!-- Generator: Adobe Illustrator 27.5.0, SVG Export Plug-In . SVG Version: 6.00 Build 0)  -->
<svg version="1.1" id="Layer_1" xmlns="http://www.w3.org/2000/svg" xmlns:xlink="http://www.w3.org/1999/xlink" x="0px" y="0px"
	 viewBox="0 0 450 450" style="enable-background:new 0 0 450 450;" xml:space="preserve">
<g id="XMLID_11_">
	<rect id="XMLID_307_" x="0" y="225" style="fill:#E4B488;" width="225" height="225"/>
	<g id="XMLID_10_">
		<path id="XMLID_298_" style="fill:#AB7A45;" d="M11.058,291.635c0,0,9.564,0.133,10.691,0.133c18.864,0,34.674-1.969,41.704-5.5
			c0.811-0.408,14.181-3.788,17.72-2.972c7.01,1.617,17.729,3.478,33.655,3.478c6.876,0,14.236-0.393,21.875-1.168
			c17.427-1.767,28.675-6.214,28.64-12.548c-0.048-8.632-20.285-11.845-27.326-12.435c-13.045-1.092-26.977-6.986-33.325-9.326
			c-3.832-1.412-16.292-2.795-29.326-3.348c-9.971-0.423-19.129-0.396-23.613-1.178c-4.34-0.757-9.249,0-12.28,0
			c-4.591,0-9.176,1.06-16.03,3.016c-5.022,1.433-13.128,2.192-23.443,2.197v2.559c9.401,0.421,19.308,1.611,23.76,0.341
			c7.763-2.216,11.821-4.526,15.713-4.526c2.881,0,5.766,0.408,10.084,1.161c4.631,0.808,19.395,1.22,29.443,1.646
			c11.711,0.497,19.71,1.049,23.195,2.333c6.556,2.416,18.812,6.41,32.014,7.515c8.006,0.67,25.104,5.986,25.13,10.741
			c0.006,0.994,3.424,3.787-18.37,5.997c-7.564,0.767-20.051,4.543-26.85,4.543c-15.705,0-25.477-3.495-32.504-4.545
			c-13.21-1.973-33.492,8.907-52.057,8.907c-1.098,0-25.136-2.87-25.136-2.87c-1.536-0.053-3.01-0.072-4.42-0.081v5.819
			C3.161,291.641,6.81,291.66,11.058,291.635z"/>
		<path id="XMLID_299_" style="fill:#C28D5A;" d="M25.076,284.457c3.766-0.271,11.346,1.394,14.668,1.333
			c11.531-0.211,18.568-5.886,28.66-8.011c7.578-1.596,10.559-0.786,14.758-0.717c6.338,0.104,18.124,4.065,26.336,4.065
			c7.766,0,16.175-2.115,30.616-4.076c8.671-1.177,15.304-1.344,15.271-3.576c-0.027-1.87-6.359-4.63-12.875-6.303
			c-3.95-1.014-8.38-1.706-11.017-1.943c-3.538-0.317-9.092-0.367-17.291-2.037c-10.063-2.05-13.804-5.591-19.995-6.098
			c-5.244-0.429-22.219-0.262-30.849-1.315c-9.937-1.213-20.691-4.114-30.797-1.686c-5.297,1.272-8.421,4.436-14.144,4.436
			c-1.298,0-6.801,0.111-7.903-0.12C9.506,258.2,4.116,257.651,0,257.297v2.917c2.164,0.29,4.397,0.605,6.601,0.605
			c1.656,0,3.2,0.147,4.586,0.437c1.256,0.263,2.631,0.396,4.086,0.396c6.107,0,12.724-2.273,18.042-4.098
			c3.145-1.08,13.042-1.497,26.186,1.279c8.529,1.802,21.134,0.101,26.423,0.534c6.054,0.495,15.632,3.802,25.631,5.839
			c8.264,1.683,13.32,4.234,16.986,4.563c5.407,0.485,12.439,0.17,15.323,1.454c-1.098,0.376-0.509,1.781-4.057,2.263
			c-14.337,1.946-24.457,4.892-32.118,4.892c-9.185,0-21.932-7.452-38.257-3.026c-9.86,2.673-13.04,5.688-24.355,5.895
			c-3.384,0.062-18.292-1.588-22.09-1.315c-4.451,0.32-11.46,2.989-15.806,2.989c-2.032,0-4.548,0.023-7.181-0.112v2.006
			c3.732,0.251,7.692,0.299,11.514,0.299C15.941,285.114,20.585,284.78,25.076,284.457z"/>
		<path id="XMLID_300_" style="fill:#D49F6B;" d="M23.152,278.481c5.594-1.109,12.935,0.383,19.473,0.255
			c9.249-0.181,17.648-1.98,26.945-4.943c4.757-1.516,11.469-3.018,16.187-2.868c7.576,0.241,12.93,6.016,22.855,5.898
			c2.262-0.027,15.818-1.455,16.525-4.544c0.204-0.892-8.109-1.127-9.723-2.514c-4.18-3.594-24.794-8.127-34.78-8.127
			c-3.226,0-7.064,0.887-7.581,1.239c-0.212,0.144-1.002,0.48-3.754,0.48c-3.913,0-9.707-0.658-15.311-1.294
			c-4.867-0.552-10.633-3.772-17.029-1.739c-3.983,1.266-10.025,4.007-16.001,4.007c-2.705,0-5.275-0.294-7.637-0.874
			c-3.3-0.81-6.562-1.22-9.694-1.22c-1.269,0-2.494,0.002-3.627,0.008v3.946c1.014-0.005,2.188-0.009,3.519-0.009
			c2.998,0,6.231-0.682,9.398,0.095c2.495,0.612,5.201,0.923,8.041,0.923c6.186,0,11.067-3.092,15.179-4.126
			c1.336-0.336,8.231-0.03,8.68,0c2.631,0.173,5.049,0.051,9.868,0.598c5.65,0.641,10.605,2.555,14.614,2.555
			c2.48,0,3.95-0.248,4.766-0.803c0.065-0.044,8.03-1.513,11.046-1.513c10.163,0,25.58,5.227,29.099,8.253
			c0.246,0.211,2.522,1.194,2.612,1.312c-0.609,0.528-3.078,1.794-6.487,1.794c-2.41,0-6.327-1.716-7.744-2.418
			c-3.177-1.573-9.835-4.212-18.737-4.212c-4.896,0-9.876,0.796-14.803,2.366c-9.058,2.886-17.572,4.324-26.701,4.503
			c-6.614,0.129-13.965-2.038-19.528,0.136c-11.986,4.683-17.07,1.691-22.823,1.335v3.725c1.385,0.101,2.893,0.159,4.524,0.159
			C10.841,280.863,15.741,279.95,23.152,278.481z"/>
		<path id="XMLID_303_" style="fill:#C28D5A;" d="M38.879,273.296c4.386,0.897,11.924,0.717,22.751-1.973
			c10.827-2.69,4.934-2.69-3.837-4.484c-8.771-1.793-20.147,0.179-23.436,1.718c-3.289,1.538-19.324,1.51-24.258,0.316
			C7.609,268.27,3.481,268.629,0,269.133v6.023c2.889-0.145,6.023-0.745,8.042-1.374C13.387,272.114,34.493,272.4,38.879,273.296z
			 M46.828,267.916c5.345,0.359,8.771,0.938,10.964,1.187c2.193,0.248-12.472,4.041-20.284,1.158
			C37.508,270.261,41.483,267.557,46.828,267.916z"/>
		<path id="XMLID_304_" style="fill:#AB7A45;" d="M57.792,269.103c-2.193-0.248-5.619-0.828-10.964-1.187
			c-5.345-0.359-9.319,2.345-9.319,2.345C45.32,273.143,59.985,269.351,57.792,269.103z"/>
		<path id="XMLID_305_" style="fill:#AB7A45;" d="M91.096,267.883c6.99,0.505,21.381,7.215,17.68,3.454
			c-3.701-3.761-18.639-5.573-24.121-5.21c-5.482,0.363-12.609,1.756-12.609,1.756C70.401,269.106,84.106,267.378,91.096,267.883z"
			/>
		<path id="XMLID_306_" style="fill:#D49F6B;" d="M202.125,238.234c-0.554,0.491-4.767,1.719-5.576,1.719
			c-1.149,0-3.912-1.727-5.974-2.303c-4.672-1.305-14.729-1.51-27.2-1.216c-19.679,0.46-17.811,3.889-18.875,5.592
			c-1.61,1.132-4.749,2.781-4.607,4.25c0.268,2.777,0.718,5.551,8.801,8.295c4.241,1.44,13.553,0.992,20.912,1.077
			c6.351,0.074,12.965,1.67,19.645,2.716c6.16,0.964,17.444,0.938,22.5,1.313c5.373,0.399,7.104,0.085,13.25,0.968v-2.764
			c-6.616-0.534-9.619,0.59-15,0.191c-5.011-0.372-13.761-3.162-19.834-4.112c-6.832-1.07-15.118-0.189-21.541-0.264
			c-7.174-0.083-12.365-1.12-16.276-2.448c-9.506-3.228-9.952-5.096-9.972-5.299c-0.008-0.081,5.677-6.649,25.148-7.104
			c12.148-0.285,19.19,1.682,23.742,2.953c2.229,0.622,3.838,1.072,5.282,1.072c1.363,0,6.705-0.666,7.701-1.551
			c2.118-1.881,10.709-3.051,20.75-3.102v-2.923C218.771,235.279,205.629,235.122,202.125,238.234z"/>
		<path id="XMLID_308_" style="fill:#D49F6B;" d="M20,246.436c3.472-0.282,10.78-2.124,14.25-1.93
			c3.91,0.218,7.44-2.094,11.343-1.704c8.048,0.804,20.424,3.569,28.532,3.634c7.959,0.064,11.324-1.219,19.282-0.771
			c3.758,0.211,6.712,1.791,10.343,3.072c3.604,1.271,7.908,1.191,11.533,2.427c7.194,2.453,14.448,5.161,21.921,6.123
			c3.759,0.484,8.437,2.209,12.172,2.951c3.845,0.764,6.571,1.012,10.281,2.349c5.997,2.159,9.129,1.896,15.344,2.7
			c6.708,0.868,16.886-0.585,23.625-0.413c6.444,0.165,17.566,3.976,24,3.411c0.897-0.079,1.671-0.234,2.375-0.423v-4.784
			c-2.528,0.262-5.052,0.685-7.507,0.901c-7.812,0.686-12.172-2.143-19.993-2.351c-8.039-0.214-26.877,1.72-38.9-2.488
			c-3.758-1.315-6.701-1.264-10.6-1.947c-3.372-0.59-7.407-2.427-10.797-2.822c-4.178-0.487-8.204-1.77-12.247-3.04
			c-3.618-1.137-7.214-2.364-10.809-3.593c-3.541-1.21-6.922-3-10.486-4.098c-3.28-1.01-6.892-0.706-10.254-0.89
			c-4.109-0.225-8.201-0.43-12.316-0.384c-8.016,0.09-12.114-0.476-20.091-1.65c-6.381-0.939-16.445-1.056-22.888-1.19
			c-5.748-0.119-12.499,2.191-18.237,2.963c-4.095,0.551-7.009-0.785-11.048,0.143c-2.728,0.627-5.971,1.129-8.827,0.38v3.967
			C6.307,249.508,13.408,246.972,20,246.436z"/>
		<path id="XMLID_309_" style="fill:#C28D5A;" d="M12.923,239.078c5.753-1.282,13.567-0.822,19.41-1.476
			c6.335-0.709,9.079-1.82,15.427-2.313c3.043-0.236,8.926,2.108,11.906,2.702c3.013,0.6,8.492,0.936,11.506,1.528
			c6.046,1.188,14.811-0.69,20.923-0.388c6.147,0.304,26.8,4.155,29.521,5.76c5.069,2.99,15.299,7.873,20.883,9.038
			c1.576,0.329-10.333-8.096-21.161-12.477c-5.483-2.218-27.568-5.162-33.722-5.436c-6.502-0.289-13.095-0.369-19.527-1.598
			c-5.713-1.092-11.49-2.57-17.232-3.333c-3.007-0.4-16.499,3.056-19.691,3.404c-5.589,0.608-10.247-0.384-15.738,1.001
			c-5.056,1.275-10.417,2.712-15.429,0.719v3.061C4.199,240.717,8.647,240.031,12.923,239.078z"/>
		<path id="XMLID_310_" style="fill:#AB7A45;" d="M14.5,233.712c7.702-1.123,16.167-5.476,23.938-5.748
			c7.824-0.274,15.424,0.943,23.192,1.722c7.991,0.801,15.031,2.909,23.036,3.443c8.33,0.555,17.528-0.11,25.752,1.514
			c3.832,0.757,7.681,1.496,11.485,2.427c2.849,0.698,5.353,2.583,8.021,3.854c2.221,1.058,5.123,3.832,7.408,3.097
			c3.339-1.074,5.947-5.385,9.341-6.311c6.977-1.903,12.508-4.394,19.659-4.581c9.888-0.258,21.358,3.379,31.244,2.933
			c9.207-0.416,18.229-2.716,27.422-3.168v-2.783c-5.177,0.588-9.008,2.301-15.167,3.213c-7.915,1.172-19.469,0.007-27.415-0.751
			c-13.469-1.286-25.838-3.135-38.918,1.14c-2.923,0.955-4.225,5.386-7.305,5.265c-2.729-0.107-5.39-2.565-7.862-3.688
			c-3.311-1.503-9.874-1.945-13.355-2.669c-4.224-0.878-13.068-2.841-17.312-3.576c-15.678-2.715-26.995-0.863-42.716-3.074
			c-10.378-1.46-21.738,0.363-32.117,1.628c-5.394,0.657-8.568,2.897-14,3.16c-2.754,0.133-5.794-0.377-8.833-0.915v2.767
			C4.801,233.446,9.525,234.437,14.5,233.712z"/>
		<path id="XMLID_311_" style="fill:#D49F6B;" d="M101.833,226.418c3.824,0.068,7.652,1.342,11.342,2.401
			c4.591,1.317,9.213,2.475,13.8,3.821c9.024,2.649,7.47-0.672,11.191-1.883c5.951-1.937,11.031-2.611,17.293-2.918
			c13.732-0.673,26.672,3.607,40.373,4.318c6.925,0.359,14.626-2.011,21.514-2.997c2.558-0.366,5.113-0.86,7.652-1.405V225h-13.158
			c-6.369,1.598-13.756,4.104-19.675,3.849c-11.553-0.498-19.417-3.216-29.675-3.849h-16.225c-2.066,0.131-4.138,0.474-6.378,1.321
			c-4.255,1.61-8.362,2.199-12.722,1.218c-3.937-0.886-7.923-1.8-11.934-2.538h-14.604
			C100.651,225.708,101.051,226.404,101.833,226.418z"/>
		<path id="XMLID_312_" style="fill:#C28D5A;" d="M215.941,240.781c-7.568,2.283-15.368,4.466-23.234,3.672
			c-3.863-0.39-7.237-2.559-11.083-3.133c-4.169-0.623-8.747,0.496-12.941,0.386c-3.845-0.101-7.687-0.248-11.533-0.151
			c-2.484,0.062-5.155,1.841-7.526,2.852c-1.435,0.612-3.93,0.295-3.364,1.997c0.729,2.189,5.602,2.742,7.247,3.108
			c3.439,0.764,7.631,1.787,11.117,1.998c4.264,0.258,7.998-0.631,12.262-0.366c8.385,0.522,16.797,1.021,25.112,2.421
			c4.54,0.765,9.44,1.522,14.414,1.888c2.335,0.172,4.674,0.349,7.011,0.47c0.524,0.027,1.051,0.029,1.576,0.036v-2.197
			c-0.525-0.012-1.051-0.015-1.576-0.027c-3.544-0.076-6.392-1.594-9.924-1.934c-8.054-0.776-16.744-1.288-24.814-1.99
			c-8.188-0.712-14.236,0.292-22.436-0.199c-3.905-0.234-14.678-2.445-12.56-3.348c1.183-0.504,16.086-2.734,23.629-2.097
			c8.098,0.683,15.749,3.325,23.929,2.322c6.798-0.833,14.803-2.077,21.502-3.441c0.799-0.163,1.547-0.361,2.25-0.509v-3.369
			C221.926,238.957,218.568,239.988,215.941,240.781z"/>
		<path id="XMLID_313_" style="fill:#AB7A45;" d="M217,246.062c-3.738,0.469-8.766,1.701-12.518,1.701
			c-1.412-0.089-2.826-0.155-4.234-0.267c-5.047-0.4-10.086-0.82-15.136-0.464c-0.844-0.118-1.692-0.24-2.551-0.36
			c-3.504-0.49-5.457,0.701-8.977,0.46c-1.607-0.11-14.619-0.478-13.917,0.097c1.259,1.032,8.059,1.741,9.51,1.827
			c5.221,0.313,10.383-0.275,15.564-0.572c2.349,0.409,5.771,0.119,8.175,0.118c4.061-0.002,6.938,0.619,10.998,0.619
			c2.583,0.186,5.155,0.413,7.719,0.96c2.948,0.629,9.451,1.61,12.449,1.618c0.358,0.001,0.651,0.01,0.917-0.005v-5.5
			C222.098,246.224,220.088,245.674,217,246.062z"/>
		<path id="XMLID_314_" style="fill:#D49F6B;" d="M11.939,298.814c7.943-0.185,15.87-0.553,23.807-0.985
			c7.818-0.426,16.983,0.491,24.505-1.829c14.583-4.499,38.862-3.298,46.92-2.865c7.853,0.422,15.783,1.458,23.645,1.157
			c7.327-0.281,14.49-2.313,21.354-5.227c5.771-2.45,12.073-3.679,17.217-7.744c2.268-1.792,4.296-3.701,6.872-4.892
			c2.498-1.155,7.333-3.047,9.993-3.331c5.303-0.566,13.196-0.302,18.5,0.146c6.163,0.52,14.032,4.261,20.25,5.42v-5.025
			c-3.116-0.786-6.26-1.651-9.625-2.3c-7.274-1.405-13.366-1.988-20.75-2.058c-6.013-0.057-14.507-0.819-20.125,2.058
			c-2.782,1.424-4.639,3.637-7.167,5.553c-2.722,2.064-15.833,11.61-31.708,11.524c-7.976-0.043-14.795,2.623-22.675,2.138
			c-16.052-0.988-26.699-4.069-42.76-3.013c-5.776,0.38-16.777,5.116-22.471,6.144c-6.189,1.117-13.975-0.203-20.219,0.129
			c-5.924,0.314-13.572,0.581-19.5,0.719c-3.319,0.077-5.542,0.977-8,0.888v3.13C3.923,299.228,8.033,298.904,11.939,298.814z"/>
		<path id="XMLID_315_" style="fill:#D49F6B;" d="M189.884,309.952c-0.818,0.725-7.039,2.539-8.235,2.539
			c-1.697,0-7.938-2.149-10.983-3c-6.9-1.927-19.591-2.632-38.008-2.197c-29.062,0.68-34.888,12.366-34.678,14.536
			c0.396,4.101,1.06,8.197,12.997,12.25c6.263,2.127,20.015,1.465,30.882,1.591c9.379,0.109,19.146,2.466,29.011,4.01
			c9.096,1.424,25.762,1.385,33.228,1.939c8.311,0.617,10.718,0.079,20.902,1.626v-4.163c-10.729-1.063-15.183,0.783-23.486,0.167
			c-7.4-0.549-20.322-4.669-29.291-6.073c-10.089-1.579-22.325-0.28-31.811-0.39c-10.595-0.123-19.97-0.159-25.745-2.12
			c-14.038-4.767-12.988-9.022-13.017-9.32c-0.012-0.12,8.384-9.819,37.137-10.491c17.94-0.421,28.34,2.485,35.061,4.362
			c3.291,0.919,5.668,1.583,7.801,1.583c2.013,0,9.213-3.558,10.684-4.865c3.199-2.84,17.077-2.013,32.335-2.013
			c0.115,0,0.22,0.001,0.332,0.001v-4.309c-0.112,0-0.218-0.001-0.332-0.001C215.96,305.613,195.254,305.182,189.884,309.952z"/>
		<path id="XMLID_316_" style="fill:#C28D5A;" d="M198.167,314.039c-11.176,3.372-10.574,6.927-22.19,5.754
			c-5.705-0.576-10.688-3.779-16.367-4.627c-6.156-0.92-12.918,0.733-19.111,0.569c-5.679-0.15-11.352-0.366-17.032-0.224
			c-3.668,0.092-7.613,2.719-11.114,4.212c-2.119,0.903-5.804,0.436-4.967,2.949c1.076,3.233,8.273,4.05,10.702,4.589
			c5.079,1.128,11.269,2.639,16.417,2.951c6.298,0.381,11.812-0.932,18.109-0.54c12.383,0.771,24.805,1.508,37.085,3.576
			c6.705,1.129,13.941,2.248,21.287,2.788c3.448,0.253,6.902,0.515,10.353,0.695c1.218,0.063,2.447,0.036,3.661,0.092v-3.233
			c-1.214-0.066-2.441-0.065-3.661-0.091c-5.234-0.112-9.439-2.354-14.656-2.857c-11.893-1.146-24.728-1.902-36.646-2.938
			c-12.092-1.052-21.024,0.431-33.133-0.293c-5.767-0.345-20.366-6.4-17.238-7.733c1.747-0.745,22.445-1.249,33.585-0.309
			c11.96,1.009,23.259,4.91,35.338,3.43c10.04-1.231,12.684-6.163,22.577-8.177c2.92-0.595,9.021-0.288,13.833,1.303v-3.36
			C216.24,310.706,203.037,312.569,198.167,314.039z"/>
		<path id="XMLID_317_" style="fill:#AB7A45;" d="M224.833,319.901c-3.333-1.568-7.304-2.576-12.333-1.945
			c-5.52,0.693-13,6.377-25.554,6.166c-7.476-0.126-24.851-1.04-26.12-1.217c-5.175-0.723-7.544-0.604-12.742-0.961
			c-2.374-0.163-7.694,0.157-10.007-0.482c-1.19-0.329-8.516-1.405-9.788-0.003c-0.778,0.858-0.92,0.744,0.117,1.594
			c1.859,1.524,10.511,3.245,12.655,3.374c7.71,0.462,31.508-0.669,35.058-0.67c5.997-0.002,10.245,0.914,16.242,0.915
			c3.814,0.275,7.613,0.61,11.399,1.418c4.354,0.929,13.958,2.378,18.385,2.389c1.276,0.003,2.033,0.095,2.855-0.546v-2.695
			c-2.117,0.859-7.887-0.905-8.868-1.008c-2.277-0.241-8.213,1.108-9.731-1.481c-0.072-0.123-0.137-0.232-0.19-0.334
			c3.515-1.373,6.603-3.459,10.442-3.469c2.348-0.007,6.622,1.086,8.347,3.371v-4.236
			C224.946,319.991,224.891,319.928,224.833,319.901z"/>
		<path id="XMLID_318_" style="fill:#C28D5A;" d="M43.193,306.25c7.618,2.268,15.509-2.813,23.32-3.802
			c4.194-0.531,16.096-4.007,26.738-4.223c10.377-0.211,19.501,2.826,23.382,3.212c7.279,0.724,12.397,2.544,19.593,0.846
			c7.316-1.726,12.75-6.776,19.9-9.202c3.117-1.058,12.671-2.451,15.499-4.376c3.251-2.213,6.271-4.673,10.001-5.689
			c10.374-2.826,17.841-4.806,28-1.459c5.076,1.672,10.189,2.973,15.375,3.89v-3.579c-8.717-1.897-17.197-4.332-26.75-4.395
			c-7.14-0.048-12.689-0.256-19.625,1.896c-2.96,0.918-8.625,7.797-23.239,10.894c-7.411,1.571-15.894,7.115-23.261,8.709
			c-7.512,1.626-19.333-2.325-26.875-3.12c-16.099-1.696-25.063-0.042-41.125,2.372c-5.294,0.796-12.005,3.975-17.307,4.698
			c-5.487,0.748-12.048-1.864-17.568-1.819c-10.086,0.084-19.321,1.707-29.25,1.988v2.887
			C13.336,305.201,20.4,299.464,43.193,306.25z"/>
		<path id="XMLID_319_" style="fill:#AB7A45;" d="M209.333,284.3c-11.673-4.463-31.356,3.215-34.083,4.94
			c-3.272,2.07-6.497,5.994-10.078,7.001c-2.785,0.783-11.997,2.827-13.9,3.594c-1.208,0.487-10.115,1.994-9.522,3.992
			c0.532,1.79,16.624,2.843,19.563,3.059c9.413,0.69,18.939,0.792,28.36,0.232c5.976-0.355,13.804-1.912,19.66-3.194
			c5.583-1.222,10.583-0.835,15.667-0.238v-1.05c-2.936,0.091-5.875-0.127-9.005-1.199c-8.328-2.852-15.735,2.044-22.468,3.362
			c-5.993,1.174-8.978-1.222-15.027-1.264c-7.11-0.049-15.333,3.944-24.213-0.325c-0.918-0.441-0.012-1.701,0.828-2.115
			c1.458-0.717,3.192-0.713,4.745-0.846c3.257-0.28,6.37-1.315,9.538-2.192c3.257-0.901,7.674-5.034,10.601-6.969
			c3.028-2.001,4.247-1.296,7.48-2.853c2.83-1.363,7.699-2.706,10.687-2.443c6.092,0.535,10.242,3.543,16.315,4.277
			c3.055,0.369,5.952,0.766,8.918,1.742c0.536,0.176,1.068,0.326,1.601,0.479v-2.326c-1.534-0.212-3.198-0.441-5.583-0.627
			C213.895,288.907,214.513,286.281,209.333,284.3z"/>
		<path id="XMLID_320_" style="fill:#C28D5A;" d="M216.653,320.943c-3.84,0.011-6.928,2.096-10.442,3.469
			c0.053,0.102,0.118,0.211,0.19,0.334c1.518,2.589,7.453,1.24,9.731,1.481c0.981,0.104,6.751,1.867,8.868,1.008v-2.922
			C223.275,322.03,219.001,320.937,216.653,320.943z"/>
		<g id="XMLID_333_">
			<path id="XMLID_17_" style="fill:#D49F6B;" d="M211.416,293.128c-7.605-1.912-13.998-8.007-21.284-3.304
				c-1.695,1.094-11.5,8.65-13.994,9.411c-2.002,0.611-12.665,0.921-14.221,2.55c-1.333,1.396,12.89,0.112,16.314,0.491
				c1.701,0.188,3.38,0.486,5.086,0.746c1.859,0.284,3.796,0.123,5.669,0.005c2.451-0.154,8.581-1.013,10.681-2.604
				c2.791-2.115,2.519-2.868,5.915-2.82c3.353,0.048,6.669,0.547,10.017,0.583c3.186,0.035,6.183,1.523,9.402,1.551v-4.194
				c-1.571-0.821-2.747-1.152-4.488-1.15C219.045,294.396,212.573,293.418,211.416,293.128z M203.133,294.539
				c-0.608,0.126-1.223,0.094-1.827,0.211c-0.91,0.176-1.828,0.482-2.703,0.82c-0.79,0.305-1.736,0.408-2.316,1.186
				c-1.039,1.396-2.557,2.133-4.063,2.671c-6.725,2.406-11.317,0.271-12.506,0.255c0,0,3.955-3.872,4.844-4.449
				c0.364-0.236,8.017-2.452,8.876-2.846c1.736-0.798,3.733-0.699,5.553-0.501c1.279,0.139,3.189,0.367,4.072,1.661
				c0.124,0.182,0.304,0.432,0.344,0.666C203.466,294.56,203.419,294.479,203.133,294.539z"/>
		</g>
		<path id="XMLID_359_" style="fill:#C28D5A;" d="M203.063,293.547c-0.883-1.295-2.793-1.522-4.072-1.661
			c-1.82-0.199-3.817-0.297-5.553,0.501c-0.859,0.395-8.511,2.61-8.876,2.846c-0.889,0.577-4.844,4.449-4.844,4.449
			c1.189,0.015,5.781,2.151,12.506-0.255c1.505-0.539,3.024-1.275,4.063-2.671c0.58-0.779,1.526-0.881,2.316-1.186
			c0.875-0.338,1.793-0.645,2.703-0.82c0.605-0.117,1.219-0.085,1.827-0.211c0.286-0.059,0.332,0.021,0.274-0.325
			C203.367,293.98,203.188,293.73,203.063,293.547z"/>
		<path id="XMLID_365_" style="fill:#AB7A45;" d="M25.739,322.646c5.398,0.575,11.077-0.087,16.423-0.974
			c5.503-0.913,13.019-5.975,18.214-8.314c4.685-2.109,11.274-3.89,16-5.878c4.96-2.087,16.792-2.646,26.401-1.077
			c2.738,0.447,5.495,0.693,8.269,0.732c2.604,0.036,15.122-0.467,17.411-1.531c1.462-0.68-8.01-1.969-9.622-1.97
			c-2.608-0.001-13.968-2.243-16.708-2.528c-18.702-1.948-39.406,4.755-42.509,7.532c-0.575,0.514-11.463,11-30.116,10.118
			c-5.154-0.244-14.293-3.127-19.376-3.825c-2.759-0.379-5.481-0.162-8.248-0.125c-0.629,0.008-1.254,0.014-1.876,0.03v3.912
			c0.456,0.093,0.943,0.161,1.5,0.154C4.531,318.86,20.732,322.113,25.739,322.646z"/>
		<path id="XMLID_378_" style="fill:#C28D5A;" d="M34.87,317.074c3.109,0.056,5.041-1.286,8.13-1.528
			c1.999-0.156,10.226-2.984,11.25-6.418c-1.188-1.433-6.957,1.189-8.5,1.021c-2.182-0.238-4.746-0.947-6.875-1.751
			c-4.079-1.54-8.256-2.812-12.504-2.795c-5.766,0.023-11.347,0.976-17.042,2.08c-3.255,0.631-6.245,0.765-9.329,0.788v3.002
			c6.89,0.354,13.715,1.444,20.541,2.98C25.294,315.522,29.988,316.985,34.87,317.074z M9.66,309.93l-0.848-0.146
			c1.989-0.827,5.22-0.518,7.497-1.057c1.973-0.467,4.048-0.401,6.108-0.401c1.961,0,3.845-0.14,5.68,0.478
			c2.231,0.752,4.219,1.669,6.57,2.181c2.135,0.464,4.003,0.696,6.234,0.696c0.631,0,2.346-0.25,2.763,0.168
			c1.205,1.209-0.965,1.385-1.776,1.469c-4.632,0.48-10.578,0.416-15.109-0.507C21.373,311.709,15.303,309.524,9.66,309.93z"/>
		<path id="XMLID_379_" style="fill:#D49F6B;" d="M41.889,313.317c0.812-0.084,2.981-0.26,1.776-1.469
			c-0.417-0.418-2.132-0.168-2.763-0.168c-2.231,0-4.099-0.232-6.234-0.696c-2.351-0.511-4.339-1.429-6.57-2.181
			c-1.835-0.618-3.718-0.478-5.68-0.478c-2.06,0-4.135-0.066-6.108,0.401c-2.277,0.539-5.509,0.231-7.497,1.057l0.848,0.146
			c5.643-0.405,11.713,1.779,17.12,2.881C31.311,313.734,37.257,313.798,41.889,313.317z"/>
		<path id="XMLID_380_" style="fill:#D49F6B;" d="M201.123,433.01c-7.763,2.216-11.821,4.526-15.713,4.526
			c-2.881,0-5.766-0.408-10.084-1.161c-4.631-0.808-19.57-2.7-29.618-3.126c-11.71-0.497-19.535,0.43-23.02-0.854
			c-6.556-2.416-18.812-6.41-32.014-7.515c-8.006-0.67-25.104-5.986-25.13-10.741c-0.006-0.994-3.424-3.787,18.37-5.997
			c7.564-0.767,20.051-4.543,26.85-4.543c15.705,0,25.532,3.177,32.505,4.545c3.765,0.739,6.739,1.322,9.127,1.322
			c1.655,0,2.966-0.271,4.126-0.854c6.833-3.433,20.239-9.375,38.804-9.375c1.098,0,25.136,2.87,25.136,2.87
			c1.579,0.055,3.09,0.072,4.537,0.082v-5.816c-3.187-0.116-6.875-0.135-11.175-0.11c0,0-9.564-0.133-10.691-0.133
			c-18.863,0-34.673,1.969-41.704,5.5c-0.811,0.408-7.754,4.251-9.034,4.251c-2.166,0-5.043-0.565-8.686-1.279
			c-7.06-1.385-17.729-3.478-33.655-3.478c-6.876,0-14.236,0.393-21.875,1.168c-17.427,1.767-28.675,6.214-28.64,12.548
			c0.048,8.632,20.285,11.845,27.326,12.435c13.045,1.092,26.977,6.986,33.325,9.326c3.832,1.412,16.292,2.795,29.326,3.348
			c9.971,0.423,19.129,0.396,23.613,1.178c4.34,0.757,9.249,0,12.28,0c4.591,0,9.176-1.06,16.03-3.016
			c5.037-1.438,13.175-2.197,23.535-2.197c0.008,0,0.017,0,0.025,0v-2.554C215.565,432.94,205.594,431.735,201.123,433.01z"/>
		<path id="XMLID_381_" style="fill:#C28D5A;" d="M218.283,427.077c-1.656,0-3.2-0.147-4.586-0.437
			c-1.256-0.263-2.631-0.397-4.086-0.397c-6.107,0-12.724,2.273-18.041,4.098c-3.145,1.08-8.201,2.013-9.583,2.013
			c-2.34,0-9.294-3.749-18.746-4.902c-8.653-1.056-18.99,1.509-24.279,1.076c-6.054-0.495-15.632-3.802-25.631-5.839
			c-8.263-1.683-13.32-4.234-16.986-4.563c-5.407-0.485-12.438-0.17-15.323-1.454c1.098-0.376,0.509-1.781,4.057-2.263
			c14.337-1.946,24.457-4.892,32.118-4.892c9.185,0,12.051,1.508,13.52,2.391c8.411,5.06,17.033,2.257,24.737,0.635
			c9.996-2.105,13.04-5.688,24.355-5.895c3.384-0.062,18.292,1.588,22.09,1.315c4.451-0.32,11.46-2.989,15.806-2.989
			c2.062,0,4.622-0.025,7.298,0.117v-2.003c-3.766-0.258-7.768-0.307-11.63-0.307c-4.427,0-9.071,0.334-13.563,0.657
			c-3.766,0.271-11.346-1.394-14.668-1.333c-11.531,0.211-18.568,5.885-28.66,8.011c-7.578,1.596-10.559,0.717-14.758,0.717
			c-2.503,0-16.221-5.667-26.336-4.065c-7.671,1.215-16.175,2.115-30.616,4.076c-8.671,1.177-15.304,1.344-15.271,3.576
			c0.027,1.87,6.359,4.63,12.875,6.303c3.95,1.014,8.38,1.706,11.017,1.943c3.538,0.317,9.092,0.367,17.291,2.037
			c10.063,2.05,13.804,5.591,19.995,6.098c5.244,0.429,22.219,0.262,30.849,1.315c9.937,1.213,20.321,3.826,22.8,3.826
			c1.766,0,4.516-0.944,7.997-2.139c5.152-1.769,8.421-4.436,14.144-4.436c1.298,0,6.801-0.111,7.903,0.119
			c1.018,0.213,6.5,0.77,10.63,1.124v-2.911C222.8,427.404,220.526,427.077,218.283,427.077z"/>
		<path id="XMLID_382_" style="fill:#D49F6B;" d="M221.364,421.713c-2.997,0-6.231,0.682-9.398-0.095
			c-2.495-0.612-5.201-0.923-8.041-0.923c-6.186,0-11.111,2.931-15.179,4.126c-9.789,2.876-29.245-3.153-33.162-3.153
			c-2.48,0-3.95,0.248-4.766,0.803c-0.065,0.044-8.03,1.513-11.046,1.513c-10.163,0-25.58-5.228-29.099-8.253
			c-0.246-0.212-2.522-1.194-2.612-1.312c3.605-3.42,12.814-0.077,14.231,0.625c3.177,1.573,9.835,4.211,18.737,4.211
			c4.896,0,9.876-0.796,14.803-2.366c9.058-2.886,17.572-4.324,26.701-4.503c6.614-0.129,13.965,2.038,19.528-0.136
			c12.066-4.715,17.138-1.654,22.939-1.331v-3.721c-1.416-0.106-2.965-0.166-4.641-0.166c-6.317,0-11.217,0.913-18.627,2.382
			c-5.593,1.109-12.935-0.383-19.473-0.255c-9.249,0.181-17.648,1.98-26.945,4.943c-4.758,1.516-11.466,2.868-16.187,2.868
			c-8.553,0-13.324-6.809-22.855-5.898c-2.252,0.215-15.818,1.455-16.525,4.544c-0.204,0.892,12.753,8.051,44.503,10.641
			c3.215,0.262,7.064-0.887,7.581-1.239c0.212-0.144,1.002-0.48,3.754-0.48c3.913,0,9.707,0.658,15.311,1.294
			c4.867,0.552,10.633,3.772,17.029,1.739c3.983-1.266,10.025-4.007,16.001-4.007c2.705,0,5.275,0.294,7.637,0.874
			c3.3,0.81,6.562,1.22,9.694,1.22c1.313,0,2.578-0.002,3.744-0.009v-3.946C223.96,421.71,222.748,421.713,221.364,421.713z"/>
		<path id="XMLID_385_" style="fill:#C28D5A;" d="M216.841,414.114c-5.345,1.667-26.451,1.382-30.837,0.485
			s-11.923-0.717-22.751,1.973c-10.827,2.69-4.934,2.69,3.838,4.483c8.771,1.794,20.147-0.179,23.436-1.718
			s19.324-1.51,24.258-0.316c2.517,0.61,6.71,0.236,10.214-0.277v-6.01C222.078,412.87,218.888,413.476,216.841,414.114z
			 M178.055,419.98c-5.345-0.359-8.771-0.938-10.964-1.186c-2.193-0.248,12.472-4.041,20.284-1.158
			C187.375,417.635,183.401,420.339,178.055,419.98z"/>
		<path id="XMLID_386_" style="fill:#AB7A45;" d="M167.091,418.793c2.193,0.248,5.619,0.828,10.964,1.186
			c5.345,0.359,9.32-2.345,9.32-2.345C179.563,414.753,164.899,418.545,167.091,418.793z"/>
		<path id="XMLID_387_" style="fill:#AB7A45;" d="M133.788,420.013c-6.99-0.505-21.381-7.215-17.68-3.454
			c3.701,3.761,18.639,5.573,24.121,5.21c5.482-0.363,12.609-1.756,12.609-1.756C154.483,418.79,140.777,420.518,133.788,420.013z"
			/>
		<path id="XMLID_388_" style="fill:#C28D5A;" d="M84.99,441.619c-0.269-2.777-0.718-5.551-8.801-8.295
			c-4.241-1.44-33.877-2.747-40.556-3.793c-6.16-0.964-17.444-0.938-22.5-1.313c-5.339-0.396-7.082-0.089-13.134-0.951v2.755
			c6.533,0.511,9.534-0.596,14.884-0.2c5.011,0.372,13.761,3.162,19.834,4.112c6.832,1.069,15.118,0.189,21.541,0.264
			c7.174,0.083,12.365,1.12,16.276,2.448c9.506,3.228,9.952,5.096,9.972,5.299c0.008,0.081-5.677,6.649-25.147,7.104
			c-12.148,0.285-19.19-1.682-23.742-2.953c-2.229-0.622-3.838-1.072-5.282-1.072c-1.363,0-6.705,0.666-7.701,1.551
			C18.524,448.45,9.99,449.618,0,449.677V450h22.317c0.159-0.108,0.309-0.22,0.442-0.338c0.554-0.491,4.767-1.719,5.576-1.719
			c1.015,0,3.29,1.346,5.229,2.057h39.679C82.859,447.53,85.098,442.731,84.99,441.619z"/>
		<path id="XMLID_389_" style="fill:#D49F6B;" d="M204.883,441.46c-3.472,0.282-21.691,4.024-25.593,3.634
			c-8.048-0.804-20.424-3.569-28.532-3.634c-7.959-0.064-11.324,1.219-19.282,0.771c-3.757-0.211-18.251-4.262-21.876-5.498
			c-7.194-2.453-14.447-5.161-21.92-6.123c-3.759-0.484-8.437-2.209-12.172-2.951c-3.845-0.764-6.571-1.012-10.282-2.348
			c-5.997-2.159-9.129-1.896-15.343-2.7c-6.708-0.868-16.886,0.585-23.625,0.413c-6.444-0.165-17.566-3.976-24-3.411
			c-0.848,0.075-1.585,0.218-2.258,0.394v5.448c9.427,0.618,22.118,0.677,27.383,0.817c7.906,0.21,22.867,1.371,23,1.389
			c3.505,0.46,22.601,2.364,26.5,3.046c3.371,0.59,7.407,2.427,10.797,2.822c4.178,0.487,8.204,1.77,12.247,3.04
			c3.618,1.137,7.214,2.364,10.809,3.593c3.541,1.21,17.377,4.804,20.74,4.988c4.109,0.225,8.201,0.43,12.316,0.384
			c8.016-0.09,12.114,0.476,20.091,1.65c6.381,0.939,16.445,1.056,22.888,1.19c5.748,0.119,12.499-2.191,18.237-2.963
			c3.132-0.421,13.703-1.261,19.992,0.175v-4.621C218.664,438.353,211.516,440.921,204.883,441.46z"/>
		<path id="XMLID_390_" style="fill:#C28D5A;" d="M165.217,449.905c-3.013-0.6-8.492-0.936-11.506-1.528
			c-6.046-1.188-14.811,0.69-20.924,0.388c-6.147-0.304-19.719-3.09-22.638-4.305c-2.88-1.199-22.182-9.328-27.766-10.493
			c-1.576-0.329,3.667,2.124,7,5.772c4.434,4.853,8.759,3.441,14.161,6.705c2.233,1.349,4.35,2.597,6.518,3.557h55.583
			C165.499,449.966,165.352,449.932,165.217,449.905z"/>
		<path id="XMLID_391_" style="fill:#C28D5A;" d="M211.96,448.818c-4.495,1.002-10.237,0.945-15.326,1.182H225v-1.331
			C220.767,447.168,216.276,447.856,211.96,448.818z"/>
		<path id="XMLID_392_" style="fill:#AB7A45;" d="M87.55,443.876c-3.155,1.015-5.658,4.916-8.788,6.124h7.339
			c0.751-0.662,1.571-1.121,2.587-1.081c1.125,0.044,2.238,0.496,3.332,1.081h8.648c-1.945-0.88-3.785-2.111-5.709-3.027
			C92.737,445.915,89.836,443.14,87.55,443.876z"/>
		<path id="XMLID_393_" style="fill:#D49F6B;" d="M8.942,447.115c7.568-2.283,15.368-4.466,23.234-3.672
			c3.863,0.39,7.298,2.24,11.083,3.133c10.572,2.495,20.628-0.138,24.474-0.234c2.484-0.062,11.456-3.147,10.89-4.849
			c-0.729-2.189-5.602-2.742-7.247-3.108c-3.439-0.764-7.631-1.787-11.117-1.998c-4.264-0.258-7.998,0.631-12.262,0.366
			c-8.385-0.522-16.797-1.021-25.112-2.422c-4.54-0.765-9.44-1.522-14.414-1.888c-2.335-0.172-4.674-0.349-7.011-0.47
			c-0.485-0.025-0.973-0.028-1.459-0.034v2.198c0.486,0.01,0.974,0.014,1.459,0.024c3.544,0.076,6.392,1.594,9.924,1.935
			c8.054,0.776,16.744,1.288,24.814,1.99c8.188,0.712,14.236-0.292,22.436,0.198c3.905,0.233,14.678,2.445,12.56,3.348
			c-1.183,0.504-16.086,2.733-23.629,2.097c-8.098-0.683-15.75-3.325-23.929-2.322c-6.798,0.833-14.803,2.077-21.502,3.441
			c-0.755,0.154-1.464,0.339-2.133,0.484v3.403C3.042,448.914,6.349,447.897,8.942,447.115z"/>
		<path id="XMLID_394_" style="fill:#AB7A45;" d="M7.883,441.834c3.738-0.469,8.766-1.701,12.518-1.702
			c1.412,0.089,14.32,1.088,19.37,0.731c0.796,0.111,19.74,1.545,20.511,1.018c0.626-0.428,5.637-0.64,4.935-1.215
			c-1.259-1.032-8.059-1.741-9.511-1.827c-5.221-0.313-10.383,0.275-15.564,0.572c-2.349-0.409-5.771-0.119-8.175-0.118
			c-4.061,0.002-6.938-0.618-10.998-0.619c-2.583-0.186-5.155-0.413-7.719-0.96c-2.948-0.629-9.451-1.61-12.449-1.617
			c-0.305-0.001-0.565-0.01-0.8-0.003v5.51C2.841,441.684,4.836,442.216,7.883,441.834z"/>
		<path id="XMLID_395_" style="fill:#AB7A45;" d="M30.258,418.617c6.013,0.057,14.507,0.819,20.125-2.058
			c2.782-1.424,4.853-3.383,7.167-5.553c4.45-4.173,15.834-9.432,19.205-10.733c3.726-1.438,27.298-3.414,35.178-2.929
			c16.052,0.988,26.699,4.068,42.76,3.013c5.776-0.38,16.777-5.116,22.471-6.144c6.189-1.117,13.975,0.203,20.219-0.128
			c5.924-0.314,13.572-0.581,19.5-0.719c3.372-0.078,5.612-1.006,8.117-0.883v-3.116c-3.958-0.707-8.111-0.377-12.055-0.286
			c-7.943,0.185-15.87,0.553-23.807,0.985c-7.818,0.426-16.875-0.105-24.505,1.829c-7.891,2-12.76,4.268-20.8,4.27
			c-8.068,0.001-18.061-0.972-26.12-1.405c-7.853-0.422-15.783-1.458-23.645-1.157c-7.327,0.281-14.49,2.313-21.354,5.227
			c-5.771,2.45-12.073,3.679-17.217,7.744c-2.268,1.792-4.297,3.701-6.872,4.892c-2.498,1.155-7.333,3.047-9.993,3.331
			c-5.303,0.566-13.196,0.302-18.5-0.146c-6.354-0.536-8.156-3.471-14.458-4.494c-1.894-0.307-3.785-0.499-5.676-0.628v4.757
			c3.078,0.778,6.186,1.629,9.508,2.271C16.782,417.963,22.875,418.546,30.258,418.617z"/>
		<path id="XMLID_396_" style="fill:#C28D5A;" d="M34.999,377.944c0.818-0.725,7.039-2.539,8.235-2.539
			c1.697,0,7.939,2.149,10.983,3c6.9,1.927,19.591,2.632,38.008,2.197c29.062-0.68,34.888-12.366,34.678-14.536
			c-0.397-4.101-1.06-8.197-12.997-12.25c-6.263-2.126-20.015-1.465-30.882-1.591c-9.379-0.109-19.146-2.466-29.011-4.01
			c-9.096-1.424-25.762-1.385-33.228-1.939c-8.278-0.614-10.701-0.084-20.785-1.609v4.303c10.683,1.478,15.224,0.915,23.5,1.529
			c7.4,0.549,20.191,2.816,29.16,4.22c10.09,1.579,22.326,0.28,31.811,0.39c10.595,0.123,18.261,1.654,24.036,3.615
			c14.038,4.767,14.697,7.526,14.726,7.825c0.012,0.12-8.384,9.819-37.137,10.491c-17.94,0.421-28.34-2.484-35.061-4.361
			c-3.291-0.919-5.668-1.583-7.801-1.583c-2.012,0-9.213,3.558-10.684,4.865c-3.199,2.84-17.077,2.013-32.335,2.013
			c-0.075,0-0.142-0.001-0.215-0.001v4.309c0.073,0,0.141,0.001,0.215,0.001C8.924,382.283,29.629,382.714,34.999,377.944z"/>
		<path id="XMLID_397_" style="fill:#AB7A45;" d="M26.717,373.857c11.176-3.372,10.574-6.927,22.19-5.755
			c5.705,0.576,10.688,3.779,16.367,4.627c6.156,0.919,12.918-0.733,19.111-0.569c5.679,0.15,11.352,0.366,17.032,0.224
			c3.668-0.092,7.613-2.719,11.114-4.211c2.12-0.904,5.804-0.436,4.967-2.949c-1.076-3.233-8.273-4.05-10.702-4.589
			c-5.079-1.128-11.269-2.639-16.417-2.951c-6.298-0.381-11.812,0.932-18.109,0.54c-12.383-0.771-24.805-1.508-37.085-3.576
			c-6.705-1.129-13.941-2.248-21.287-2.788c-3.448-0.253-6.902-0.515-10.353-0.695c-1.179-0.061-2.369-0.035-3.545-0.085v3.231
			c1.176,0.06,2.364,0.06,3.545,0.085c5.234,0.112,9.439,2.354,14.656,2.857c11.893,1.146,24.728,1.902,36.646,2.938
			c12.092,1.052,21.024-0.431,33.133,0.293c5.767,0.345,20.366,6.4,17.238,7.733c-1.747,0.745-22.445,1.249-33.585,0.309
			c-11.96-1.009-23.259-4.91-35.338-3.43c-10.04,1.231-12.684,6.163-22.577,8.178c-2.897,0.59-8.924,0.294-13.717-1.263v3.344
			C8.76,377.173,21.868,375.32,26.717,373.857z"/>
		<path id="XMLID_398_" style="fill:#C28D5A;" d="M12.217,369.773c5.52-0.693,13.761-6.559,19.302-6.56
			c2.086,0.132,4.174,0.23,6.252,0.394c7.453,0.591,14.895,1.212,22.353,0.686c1.246,0.174,2.499,0.354,3.768,0.532
			c5.175,0.723,7.544,0.604,12.742,0.961c2.374,0.163,20.715-0.259,19.677-1.109c-1.859-1.524-10.511-3.245-12.655-3.374
			c-7.711-0.462-15.334,0.406-22.985,0.844c-3.469-0.604-8.523-0.176-12.073-0.174c-5.997,0.002-10.246-0.913-16.242-0.915
			c-3.814-0.275-7.613-0.61-11.4-1.417c-4.354-0.929-13.958-2.378-18.385-2.389c-1.129-0.003-1.851-0.086-2.571,0.338v3.03
			c2.202-0.756,7.788,0.946,8.752,1.047c2.277,0.241,8.213-1.108,9.731,1.481c0.072,0.123,0.137,0.232,0.19,0.334
			c-3.515,1.373-6.603,3.459-10.442,3.47c-2.298,0.006-6.438-1.042-8.23-3.227v4.105C4.98,367.801,7.227,370.399,12.217,369.773z"/>
		<path id="XMLID_399_" style="fill:#C28D5A;" d="M46.258,408.526c2.96-0.918,12.075-8.86,23.239-10.894
			c7.453-1.358,15.894-7.115,23.261-8.709c7.512-1.626,19.333,2.325,26.875,3.12c16.099,1.696,25.063,0.042,41.125-2.372
			c5.294-0.796,12.005-3.975,17.307-4.698c5.487-0.748,12.048,1.864,17.568,1.819c10.125-0.084,19.394-1.719,29.367-1.99v-2.893
			c-13.412,0.752-20.449,6.543-43.309-0.263c-7.618-2.268-15.509,2.813-23.32,3.802c-4.194,0.531-16.096,4.007-26.738,4.223
			c-10.377,0.211-19.501-2.826-23.382-3.212c-7.279-0.724-12.397-2.544-19.593-0.846c-7.316,1.726-12.75,6.776-19.899,9.202
			c-3.117,1.058-12.671,2.451-15.5,4.376c-3.251,2.213-6.271,4.673-10,5.689c-10.374,2.826-17.841,4.806-28,1.459
			c-5.038-1.66-10.112-2.952-15.259-3.868v4.135c8.621,2.349,17.007,5.332,26.5,5.395C33.64,412.048,39.322,410.678,46.258,408.526z
			"/>
		<path id="XMLID_400_" style="fill:#D49F6B;" d="M49.633,398.655c3.337-1.964,7.619-4.815,11.2-5.822
			c2.786-0.783,10.875-4.006,12.778-4.773c1.208-0.487,10.115-1.994,9.522-3.992c-0.532-1.79-9.391-1.69-10.751-1.984
			c-2.9-0.627-5.873-0.86-8.813-1.075c-9.413-0.69-18.939-0.792-28.36-0.232c-5.976,0.355-13.804,1.912-19.66,3.194
			c-5.54,1.212-10.506,0.84-15.55,0.251v2.11c2.815,0.076,5.69,0.134,8.888,0.125c11.504-0.03,15.735-2.044,22.468-3.362
			c5.993-1.174,8.978,1.222,15.027,1.264c7.11,0.049,15.333-3.944,24.213,0.325c0.918,0.441,0.012,1.702-0.828,2.115
			c-1.458,0.717-3.192,0.713-4.744,0.846c-3.257,0.28-6.37,1.315-9.539,2.192c-3.257,0.901-7.674,5.034-10.601,6.969
			c-3.028,2.001-4.247,1.296-7.48,2.853c-2.831,1.363-7.699,2.706-10.687,2.443c-6.092-0.535-10.242-3.543-16.315-4.277
			c-3.055-0.369-5.952-0.766-8.918-1.742c-0.497-0.163-0.99-0.3-1.484-0.444v3.086c5.653,1.54,12.051,3.895,15.55,4.869
			C30.534,407.767,40.833,403.833,49.633,398.655z"/>
		<path id="XMLID_401_" style="fill:#D49F6B;" d="M8.23,366.953c3.84-0.011,6.928-2.097,10.442-3.47
			c-0.053-0.102-0.118-0.211-0.19-0.334c-1.518-2.589-7.454-1.24-9.731-1.481c-0.964-0.102-6.549-1.804-8.752-1.047v3.104
			C1.792,365.911,5.932,366.959,8.23,366.953z"/>
		<g id="XMLID_404_">
			<path id="XMLID_20_" style="fill:#C28D5A;" d="M13.467,394.768c7.605,1.912,13.998,8.007,21.284,3.304
				c1.695-1.094,6.561-2.872,8.299-3.89c2.316-1.356,3.202-4.76,5.696-5.522c2.002-0.611,12.665-0.921,14.221-2.55
				c1.333-1.396-12.89-0.112-16.314-0.491c-1.701-0.188-3.38-0.486-5.086-0.746c-1.859-0.284-3.796-0.123-5.669-0.005
				c-2.451,0.154-8.582,1.013-10.681,2.604c-2.791,2.115-2.519,2.868-5.915,2.82c-3.353-0.048-6.669-0.547-10.017-0.584
				c-3.147-0.034-6.11-1.482-9.285-1.545v4.243c1.511,0.775,2.676,1.097,4.372,1.095C5.839,393.5,12.311,394.477,13.467,394.768z
				 M22.083,393.107c0.608-0.126,1.222-0.094,1.827-0.211c0.91-0.176,1.829-0.482,2.703-0.82c0.79-0.305,1.736-0.407,2.316-1.186
				c1.039-1.396,2.501-2.331,4.063-2.671c1.249-0.272,8.897-0.802,10.073-0.584c0.681,0.126-1.553,4.221-2.411,4.778
				c-0.364,0.236-8.017,2.452-8.876,2.846c-1.736,0.798-3.733,0.699-5.553,0.5c-1.279-0.139-3.189-0.367-4.072-1.661
				c-0.124-0.182-0.304-0.432-0.344-0.666C21.751,393.086,21.797,393.167,22.083,393.107z"/>
		</g>
		<path id="XMLID_405_" style="fill:#D49F6B;" d="M22.154,394.098c0.883,1.295,2.793,1.522,4.072,1.661
			c1.82,0.199,3.817,0.297,5.553-0.5c0.859-0.395,8.511-2.61,8.876-2.846c0.858-0.557,3.092-4.652,2.411-4.778
			c-1.176-0.217-8.825,0.313-10.073,0.584c-1.562,0.34-3.024,1.275-4.063,2.671c-0.58,0.779-1.526,0.881-2.316,1.186
			c-0.875,0.338-1.793,0.645-2.703,0.82c-0.605,0.117-1.219,0.085-1.827,0.211c-0.286,0.059-0.332-0.021-0.274,0.324
			C21.85,393.666,22.029,393.916,22.154,394.098z"/>
		<path id="XMLID_406_" style="fill:#D49F6B;" d="M213.251,369.686c-4.828-1.24-9.099-3.903-14.106-4.436
			c-5.398-0.575-11.077,0.087-16.423,0.974c-5.503,0.913-13.028,4.437-18.222,6.776c-4.685,2.109-11.266,5.428-15.992,7.416
			c-4.96,2.087-9.768,1.938-15,2.582c-5.071,0.624-6.329-0.951-11.401-1.505c-2.758-0.301-5.495-0.693-8.269-0.731
			c-2.604-0.036-14.803,1.532-17.411,1.531c-1.612-0.001,8.01,1.969,9.622,1.97c2.608,0.001,13.992,2.069,16.708,2.528
			c12.075,2.042,26.231-1.927,30.952-3.647c5.029-1.832,17.456-14.978,41.673-14.004c5.156,0.207,14.293,3.127,19.376,3.825
			c2.759,0.379,5.481,0.162,8.248,0.125c0.668-0.009,1.332-0.015,1.993-0.034v-3.889c-0.488-0.106-1.014-0.181-1.617-0.173
			C220.353,369.036,216.244,370.455,213.251,369.686z"/>
		<path id="XMLID_463_" style="fill:#C28D5A;" d="M190.013,370.822c-3.109-0.056-5.041,1.286-8.13,1.528
			c-1.999,0.156-10.226,2.984-11.25,6.418c1.189,1.433,6.957-1.189,8.5-1.021c2.182,0.238,4.746,0.947,6.875,1.75
			c4.079,1.54,8.256,2.812,12.504,2.795c5.766-0.023,11.347-0.976,17.042-2.079c3.296-0.639,6.32-0.769,9.445-0.789v-2.995
			c-6.929-0.347-13.794-1.441-20.658-2.986C199.59,372.374,194.895,370.911,190.013,370.822z M215.223,377.966l0.848,0.146
			c-1.989,0.827-5.221,0.518-7.497,1.057c-1.973,0.467-4.048,0.401-6.108,0.401c-1.961,0-3.845,0.14-5.68-0.478
			c-2.231-0.752-4.219-1.669-6.57-2.181c-2.135-0.465-4.003-0.696-6.234-0.696c-0.631,0-2.346,0.25-2.763-0.168
			c-1.205-1.209,0.965-1.385,1.776-1.469c4.632-0.48,10.578-0.417,15.109,0.507C203.51,376.187,209.58,378.371,215.223,377.966z"/>
		<path id="XMLID_464_" style="fill:#D49F6B;" d="M182.994,374.578c-0.812,0.084-2.982,0.26-1.776,1.469
			c0.417,0.418,2.132,0.168,2.763,0.168c2.232,0,4.099,0.232,6.234,0.696c2.352,0.511,4.339,1.429,6.57,2.181
			c1.835,0.618,3.718,0.478,5.68,0.478c2.06,0,4.135,0.066,6.108-0.401c2.277-0.539,5.509-0.231,7.497-1.057l-0.848-0.146
			c-5.643,0.405-11.713-1.779-17.12-2.881C193.572,374.162,187.626,374.098,182.994,374.578z"/>
		<path id="XMLID_465_" style="fill:#AB7A45;" d="M176.5,359.333c-8.833,1.909-12.746,4.697-21.071,8.365
			c-4.516,1.989-8.932,5.917-13.762,7.052c-4.729,1.112-11.465-1.102-16.308-0.878c-1.605,0.074-7.221,5.119-5.609,5.045
			c8.343-0.384,21.771-0.773,29.5-4.083c4.321-1.85,11.014-6.546,15.566-7.811c4.589-1.276,9.3-2.086,13.958-3.058
			c9.273-1.935,13.84-3.032,23.351-1.964c4.86,0.546,12.786,4.793,17.625,5.5c1.588,0.232,3.402-0.104,5.25-0.505v-3.321
			c-4.804-1.15-10.976-3.678-15.221-4.31C200.291,357.952,185.842,357.314,176.5,359.333z"/>
		<path id="XMLID_466_" style="fill:#C28D5A;" d="M21.454,342.969c8.168,0.378,16.872,3.04,25.046,2.905
			c8.189-0.135,17.309,2.536,25.5,2.501c6.631-0.029,9.013-1.395,15.75,0.375c6.518,1.712,13.639,1.085,19.083,0.757
			c5.118-0.308,10.055,0.062,14.667,2.794c2.612,1.547,4.97,3.886,6.689,6.274c1.831,2.543,2.012,7.754,4.061,10.132
			c4.009,4.653,11.618,0.587,16.055-2.313c2.916-1.906,14.702-9.962,18.489-10.651c7.467-1.357,15.309-1.441,22.868-0.993
			c4.088,0.242,8.06,1.475,12.11,2.013c4.216,0.56,8.445,1.039,12.672,1.512c3.513,0.393,7.032,0.74,10.556,1.018v-2.504
			c-3.195-0.253-6.386-0.562-9.575-0.906c-3.917-0.423-7.828-0.903-11.739-1.377c-4.08-0.495-8.06-1.583-12.139-2.061
			c-7.137-0.836-14.617-0.507-21.736,0.344c-3.129,0.374-6.292,0.854-9.231,2.024c-3.024,1.203-5.664,3.165-8.194,5.172
			c-5.056,4.012-12.837,10.969-18.177,3.379c-1.889-2.685-3.539-5.551-5.428-8.251c-1.607-2.297-2.695-4.457-5.077-6.054
			c-4.055-2.717-9.72-2.447-14.357-2.206c-2.384,0.124-4.763,0.335-7.152,0.354c-3.868,0.031-21.82-3.581-27.529-2.874
			c-8.353,1.035-18.822-1.942-27.238-1.79c-8.5,0.153-21.183-2.311-29.679-2.668c-7.229-0.304-11.413,1.09-17.75,1.636v2.544
			C7.105,343.64,14.46,342.645,21.454,342.969z"/>
		<path id="XMLID_467_" style="fill:#D49F6B;" d="M26.745,338.933c6.522,0.698,13.075,1.187,19.636,1.255
			c6.457,0.067,15.68,1,22.119,0.687c5.803-0.281,22.401,3.088,28.74,4.052c5.802,0.883,16.395-1.119,22.198-0.198
			c5.749,0.913,12.444,7.715,14.562,13.32c3.003,7.948,10.924,2.188,12.698,0.344c0.953-0.991,6.033-4.385,7.811-4.789
			c5.854-1.332,11.744-2.433,17.728-2.966c12.776-1.138,24.974,1.394,37.763,1.861c2.401,0.088,9.5,0.103,15,0.546v-2.234
			c-4.904-0.189-10.643,0.032-13.5-0.061c-15.008-0.491-38.422-7.954-56.333-2.417c-3.322,1.027-12.006,9.772-15.042,8.91
			c-2.369-0.673-5.843-8.819-8.125-10.493c-4.703-3.45-7.485-4.624-13.25-5c-5.008-0.327-13.875,2.25-18,1.875
			c-5.485-0.499-15.799-3.32-21.25-4.127c-10.169-1.505-18.313-1.635-28.5-0.903c-10.681,0.767-19.153-1.507-29.747-2.789
			c-7.325-0.887-14.228-0.024-21.253,0.76v1.828C8.879,338.168,17.575,337.952,26.745,338.933z"/>
		<path id="XMLID_468_" style="fill:#C28D5A;" d="M56.104,336.831c2.812,0.062,5.637-0.323,8.453-0.368
			c3.058-0.049,20.617,0.877,26.106,2.378c3.429,0.938,9.034,2.791,12.587,3.033c2.063,0.14,10.158,0.275,9.25-3.042
			c-0.269-0.981-4.505-2.767-5.236-3.402c-1.519-1.318-5.301-3.064-6.918-4.257c-2.282-1.684-4.878-3.181-6.969-5.103
			c-2.14-1.967-4.391-4.871-1.774-7.342c1.456-1.375,10.05-4.837,10.771-6.793c1.14-3.095-10.028-2.263-11.733-2.186
			c-4.966,0.224-12.096,0.495-16.767,2.186c-5.773,2.089-11.482,5.522-17.169,7.814c-5.916,2.385-10.594,4.341-16.886,4.436
			c-6.58,0.099-13.164,0.369-19.742,0.424c-6.829,0.058-13.433-1.719-20.077-3.079v2.541c6.656,1.366,13.229,2.996,20.077,3.038
			c3.899,0.024,7.795-0.33,11.693-0.407c3.506-0.069,7.012,0.025,10.519-0.068c6.467-0.171,15.053-4.084,21.044-6.635
			c6.586-2.805,10.667-3.182,17.625-5.038c2.528-0.674,5.123-0.941,7.719-1.193c0.909-0.088,1.818-0.136,2.731-0.134
			c1.353,0.002,2.037-0.234,1.031,0.971c-1.363,1.632-3.396,2.552-4.257,4.589c-0.91,2.156,0.01,4.773,1.426,6.484
			c2.291,2.768,5.313,4.628,8.197,6.719c1.666,1.208,3.13,2.717,4.924,3.727c6.595,3.707-4.562,1.87-7.053,1.357
			c-2.813-0.58-8.104-3.2-10.928-3.732c-8.896-1.675-42.917,1.25-58.906-3.22c-6.09-1.703-15.015-1.428-21.344-1.655
			c-1.039-0.037-2.666-0.104-4.5-0.18v4.271c3.855,0.629,21.84,0.203,33.309,2.909C40.182,337.497,48.998,336.674,56.104,336.831z"
			/>
		<path id="XMLID_471_" style="fill:#D49F6B;" d="M51.862,331.418c5.526,0.366,10.808-0.703,16.335-0.529
			c5.099,0.16,10.347-0.543,15.305,0.54c13.722,2.998,5.822-0.86,4.404-3.844c-0.657-1.383-3.4-7.989-4.906-8.937
			c-3.352-2.108-9.89,1.239-13.573,2.142c-4.655,1.141-9.036,2.78-13.616,4.111c-2.208,0.642-4.47,1.113-6.685,1.734
			c-2.33,0.654-4.373,1.668-6.875,1.622C42.024,328.253,31.875,330.095,51.862,331.418z M51.324,328.405
			c4.069-1.065,7.986-2.229,11.945-3.593c3.341-1.151,7.936-0.922,10.94-2.699c6.921-4.093,13.281,6.884,10.259,7.051
			c-2.23,0.123-4.531-0.136-6.755-0.271c-4.421-0.269-8.869-0.262-13.298-0.386c-3.883-0.109-7.737-0.039-11.585,0.469
			c-1.651,0.218-3.289,0.419-4.916,0.482C49.044,329.096,50.17,328.707,51.324,328.405z"/>
		<path id="XMLID_472_" style="fill:#AB7A45;" d="M72.531,326.971c2.06-0.042,3.893,0.246,5.942-0.281
			c2.499-0.643,0.355-1.4-1.095-1.759c-1.223-0.303-2.666-0.836-4.025-0.609c-1.464,0.245-3.024,0.945-4.475,1.321
			c-2.242,0.581-4.807,1.312-7.151,1.507l-0.346,0.283c2.074-0.194,4.117-0.294,6.174-0.346
			C69.212,327.047,70.87,327.005,72.531,326.971z"/>
		<path id="XMLID_473_" style="fill:#C28D5A;" d="M195.735,343.868c-5.061-0.263-10.09-0.138-15.11-0.618
			c-4.214-0.403-8.506-1.091-12.75-1.25c-4.847-0.181-9.771-1.478-14.59-2.222c-5.609-0.866-11.452-1.153-17.131-1.153
			c-2.191,0-4.355-0.197-6.556-0.125c-0.493,0.016-2.186-0.146-2.481,0.263c-0.747,1.038,1.167,1.8,1.755,2.108
			c3.778,1.981,8.721,2.021,9.847,6.744c0.193,0.809,0.068,2.092,0.577,2.762c0.83,1.092,2.734,0.596,3.821,0.256
			c2.54-0.795,2.948-3.031,5.001-4.259c4.19-2.508,8.71-3.41,13.537-3.249c1.837,0.061,3.656,0.587,5.469,0.906
			c1.981,0.348,3.997,0.296,5.967,0.597c5.344,0.819,10.911,0.674,16.275,1.407c6.551,0.895,13.332,1.908,20.006,1.371
			c4.083-0.329,8.196-0.164,12.26-0.531c1.132-0.102,2.249-0.261,3.368-0.394v-0.655c-4.045-0.111-8.057-0.451-12.091-0.451
			C207.145,345.374,201.475,344.167,195.735,343.868z"/>
	</g>
</g>

</svg>
