<svg id="Layer_1" data-name="Layer 1" xmlns="http://www.w3.org/2000/svg" viewBox="0 0 450 450"><defs><style>.cls-1{fill:#9a6030;}.cls-2{fill:#7c411e;}</style></defs><g id="_3" data-name="3"><rect class="cls-1" width="450" height="449"/><path class="cls-2" d="M430,306.51q-7.59-.22-15.19-.28c-5-.05-10.08,0-15.12,0-7.87-.5-15.75-.89-23.64-1.28s-15.83-.94-23.76-1.45-15.86-.91-23.8-1.32l-11.93-.32c-4,0-8,0-12,.07s-7.94.33-11.9.57-7.9.53-11.87.89c-7.93.66-15.8,1.85-23.66,3s-15.7,2.4-23.58,3.24c-3.93.47-7.88.85-11.82,1.23s-7.89.77-11.84,1.05c-7.9.67-15.82,1.06-23.74,1.34-3.95.14-7.91.17-11.87.24s-7.91,0-11.86-.16-7.89-.22-11.83-.56-7.87-.48-11.76-.94L133,311.2l-5.89-.8c-3.91-.59-7.89-.95-11.85-1.36l-11.89-1.21-11.92-.7c-8-.58-15.9-.63-23.86-.79s-15.87-.09-23.79,0L20,306.51H0v4H20l23.78.22,23.76.12c7.9.22,15.8.2,23.68.65l11.82.56,11.78,1.05c3.93.36,7.85.68,11.8,1.14l5.91.65,6,.41c8,.56,15.95.57,23.91.41,4-.09,7.95-.32,11.92-.48s7.93-.49,11.88-.83c7.92-.66,15.81-1.46,23.69-2.28l23.65-2.47c3.94-.41,7.9-.69,11.85-1L257.3,308,281,307.1c7.87-.27,15.86-.86,23.71-1.07,3.94,0,7.86-.25,11.8-.28l11.84,0,11.86.29c3.95.1,7.9.4,11.85.59s7.9.43,11.85.79,7.89.64,11.83,1.07c7.88.83,15.78,1.61,23.69,2.27h.16c5.06,0,10.12,0,15.19,0s10.12-.13,15.18-.28h20v-4Z" transform="translate(0)"/><path class="cls-2" d="M430,296.86l-17.64.08c-5.61,0-12.44.17-20.22-.2-7.78-.15-16.59-.75-26.18-1.3l-15-.89c-5.18-.3-10.54-.65-16-.78l-17-.57c-5.84-.11-11.73,0-17.77.05l-9.11.09-9.23.4c-6.19.31-12.47.45-18.77.9l-38.22,2.42c-6.4.45-12.79.73-19.16,1.08l-9.53.5-9.46.27-9.39.24c-3.11.08-6.22.21-9.27.1l-18.12-.32c-11.94-.56-23.59-1.91-34.53-2.33l-8.19-.4-4-.19-3.94-.07-15.06-.23c-9.65.06-18.5.09-26.31.29l-20.25.45L20,296.86H0v2H20l17.63.4,20.24.49c7.83.16,16.61.54,26.19.92l14.93.92,3.9.24,3.94.38,8.07.77c2.77.23,5.4.57,8.38.73l8.57.46,8.76.47c3,.1,5.9.44,9,.34l18.51-.1c3.13,0,6.25-.15,9.39-.31l9.45-.47,9.53-.5,9.55-.75c6.38-.52,12.8-1,19.18-1.58,12.78-1.17,25.55-2.33,38.12-3.35,6.29-.58,12.53-.84,18.69-1.27l9.19-.58,9.07-.27c6-.12,11.91-.42,17.65-.39l17,.42c5.52.08,10.86.38,16,.64l15,.75c9.61.54,18.41,1.14,26.26,1.28,7.84.33,14.64.23,20.26.28l17.63.08h20v-2Z" transform="translate(0)"/><path class="cls-2" d="M399.63,291.87c-9.08,0-20.55-.56-33.84-1.21-14.54-.71-31-1.52-48.91-1.83-35.53-.59-73,2.57-103.16,5.12a554.39,554.39,0,0,1-90.14.06c-27.62-2.14-54-2.14-73.21-2.14H0v2H50.37c19.21,0,45.51,0,73.06,2.12,15.69,1.22,30.88,1.82,45.78,1.82,15.12,0,29.94-.62,44.68-1.87,30.08-2.55,67.53-5.71,103-5.11,17.87.3,34.33,1.11,48.85,1.82,13.31.65,24.82,1.22,33.94,1.22H450v-2H399.63Z" transform="translate(0)"/><path class="cls-2" d="M399.63,301.85c-8.23,0-18.7-.75-30.81-1.62-15.92-1.15-34-2.44-53.33-2.54-26.57-.36-53.49,2.2-79.52,4.67-37,3.5-75.35,7.13-113,2.38-27-2.89-53.37-2.89-72.62-2.89H0v2H50.37c19.2,0,45.5,0,72.39,2.87A313,313,0,0,0,161.93,309c24.94,0,49.86-2.36,74.23-4.67,26-2.45,52.82-5,79.31-4.66,19.31.1,37.32,1.4,53.2,2.54,12.16.87,22.65,1.63,31,1.63H450v-2H399.63Z" transform="translate(0)"/><path class="cls-2" d="M430,332.45l-4.57-.36c-2.95-.14-7.35-.66-12.95-1.27L403.2,330l-5.15-.49-5.66-.75c-3.91-.5-8.05-1.12-12.45-1.47s-9-.93-13.85-1.15-9.87-.63-15.09-.71l-7.95-.22h-8.2c-11.09,0-22.77.48-34.83,1.18s-24.49,1.84-37.1,3.15-25.39,2.79-38.16,4.35l-38.1,4.53a279.58,279.58,0,0,1-36.89,2.29l-8.84-.55-4.35-.27c-1.45-.16-2.9-.42-4.33-.61-5.76-.86-11.32-1.7-16.83-2.43l-8.13-1.1c-2.67-.36-5.29-.75-7.9-.93l-15-1.31c-9.66-.5-18.54-1-26.36-1-7.84-.15-14.71-.06-20.32-.06L20,332.45H0v2H20l17.68.06c5.64,0,12.44,0,20.28.19,7.85,0,16.63.63,26.23,1.19l14.94,1.41c2.58.19,5.19.6,7.84,1l8.06,1.15c5.44.75,11.1,1.6,16.82,2.47,1.44.2,2.87.46,4.34.62l4.46.3,9,.58A283.12,283.12,0,0,0,187,341.18l38.14-4.45c12.76-1.53,25.53-3,38.11-4.26s25-2.3,37-3.05,23.63-1.14,34.65-1.1H343l7.89.24c5.19.09,10.18.45,15,.74s9.38.78,13.74,1.17,8.47,1,12.33,1.49l5.61.75c2.05.21,3.65.3,5.39.45l9.29.71c5.62.35,10,.71,13.1.6l4.67,0h20v-2Z" transform="translate(0)"/><path class="cls-2" d="M430,327.46q-7.59.19-15.19.24h-15.1c-7.78-1.55-15.54-3.27-23.43-4.25l-5.91-.89c-2-.29-4-.42-5.95-.64-4-.36-7.93-.85-11.91-1.08s-8-.45-11.95-.59-8-.06-12-.1c-2,0-4,0-6,0l-6,.23c-4,.17-8,.25-11.93.55-31.82,1.86-63.34,6.22-94.89,9.44-7.89.86-15.79,1.51-23.68,2.2-7.9.53-15.77,1.14-23.73,1.38l-11.89.52-2.93.14-2.93-.1c-2-.08-3.92-.11-5.87-.22-3.87-.49-7.72-.69-11.64-1.53-2-.34-3.88-.76-5.9-1l-5.93-.79-11.86-1.58c-4-.41-7.95-.63-11.92-.94-7.94-.71-15.92-.78-23.88-1.06q-11.91-.15-23.84-.06L20,327.46H0v2H20l23.82.14q11.91,0,23.8.34c7.91.37,15.83.53,23.7,1.33,3.94.36,7.89.61,11.82,1l11.75,1.6,5.87.8c1.92.25,3.89.69,5.84,1,3.85.85,8,1.11,12,1.61,2,.12,4,.17,6,.25l3,.11,3-.13,11.91-.48c7.92-.22,15.88-.8,23.84-1.31,7.93-.67,15.86-1.3,23.77-2.13,15.82-1.56,31.6-3.42,47.38-5.08q11.84-1.28,23.68-2.32l11.84-1,11.86-.74c3.95-.29,7.91-.36,11.86-.51s7.91-.31,11.86-.31,7.91-.14,11.86-.06,7.9.16,11.86.24,7.89.46,11.84.66c2,.14,3.95.19,5.92.41l5.89.65c7.9.7,15.65,2.28,23.46,3.61l.11,0h15.24q7.6,0,15.19.23h20v-2Z" transform="translate(0)"/><path class="cls-2" d="M399.78,322.48c-34.54-5.42-63.4-7.54-90.81-6.66-22.93.74-46.23,3.84-68.76,6.84-38.52,5.13-78.36,10.43-117.84,4.17-26.36-4.36-52.74-4.36-72-4.36H0v2H50.37c19.19,0,45.47,0,71.68,4.33a246.55,246.55,0,0,0,38.75,2.87c26.84,0,53.56-3.56,79.67-7,22.49-3,45.74-6.09,68.56-6.83,27.28-.88,56,1.23,90.6,6.66H450v-2H399.78Z" transform="translate(0)"/><path class="cls-2" d="M399.77,312.5c-69.85-9.81-140.51-3.24-206.9,4.33-24.83,3.09-48.48,2.87-70.3-.67-26.58-3.67-52.95-3.67-72.2-3.67H0v2H50.37c19.19,0,45.49,0,71.9,3.64A228.54,228.54,0,0,0,159,321a277,277,0,0,0,34.15-2.18c66.25-7.55,136.76-14.12,206.52-4.32H450v-2H399.77Z" transform="translate(0)"/><path class="cls-2" d="M399.81,317.5c-55.23-10.41-111.93-4.79-166.77.64-22.35,2.22-45.47,4.51-68.11,5.67a181.35,181.35,0,0,1-42.48-2.31c-26.45-4-52.82-4-72.08-4H0v2H50.37c19.19,0,45.48,0,71.76,4a191.73,191.73,0,0,0,31.64,2.71c3.85,0,7.62-.13,11.28-.39,22.67-1.16,45.81-3.45,68.18-5.67,54.7-5.42,111.26-11,166.4-.65H450v-2H430Z" transform="translate(0)"/><path class="cls-2" d="M399.63,265.58c-8.24,0-18.7-.75-30.82-1.62-15.92-1.15-34-2.44-53.32-2.54-26.57-.35-53.49,2.2-79.52,4.67-37,3.5-75.35,7.13-113,2.38-27-2.89-53.37-2.89-72.62-2.89H0v2H50.37c19.2,0,45.5,0,72.39,2.87a313,313,0,0,0,39.17,2.29c24.94,0,49.86-2.36,74.23-4.67,26-2.45,52.82-5,79.31-4.66,19.3.1,37.31,1.4,53.19,2.54,12.16.87,22.66,1.63,31,1.63H450v-2H399.63Z" transform="translate(0)"/><path class="cls-2" d="M430,250.61l-19-.17c-6.34,0-12.67-.09-19-.35-12.65-.41-25.28-.73-37.95-1.24l-37.95-1.27-9.54-.37-9.53-.09c-3.18,0-6.36.09-9.53.16s-6.35.16-9.52.33c-6.35.24-12.68.74-19,1.18l-19,1.53c-6.31.56-12.62,1-18.94,1.46s-12.63.89-19,1.11q-4.74.24-9.49.31c-3.16,0-6.32.18-9.48.1l-9.48-.1-9.47-.34c-3.15-.09-6.3-.39-9.44-.58L150,252l-4.69-.46c-6.28-.48-12.5-1.42-18.72-2.26l-.17,0h-.17L113,249.15l-13.28.09-26.58.39c-17.71.33-35.43.51-53.15,1H0v2H20c17.71.47,35.43.65,53.15,1l26.57.39,13.29.09,13.18,0c6.29.63,12.55,1.34,18.85,1.61l4.78.26,4.78.07c3.18,0,6.36.13,9.54,0l9.54-.17,9.52-.41q9.51-.46,19-1.06l19-1.18c6.32-.43,12.64-.86,19-1.19l19-1c6.32-.28,12.64-.46,19-.65,3.16-.13,6.32-.16,9.47-.19s6.32-.11,9.48,0l9.46.09,9.46.35,38,1.24c12.66.4,25.36.6,38,.9,6.34.22,12.67.11,19,.05l19-.17h20v-2Z" transform="translate(0)"/><path class="cls-2" d="M399.63,245.63c-18.39,0-44.65-.79-77.89-1.78l-3.1-.1c-26.34-.87-53.37.69-79.5,2.2-37.09,2.14-75.44,4.35-112.85-.33H0v2H126.17a396.8,396.8,0,0,0,49.26,2.78c21.41,0,42.82-1.24,63.82-2.45,26.09-1.51,53.08-3.07,79.33-2.19l3.1.09c33.26,1,59.53,1.78,77.95,1.78H450v-2H399.63Z" transform="translate(0)"/><path class="cls-2" d="M430,286.89l-19-.17c-6.34,0-12.67-.1-19-.36-12.65-.41-25.28-.73-37.95-1.23l-37.95-1.28-9.54-.36-9.53-.1c-3.18,0-6.36.09-9.53.17s-6.35.15-9.52.33c-6.35.23-12.68.73-19,1.17l-19,1.53c-6.31.56-12.62,1-18.94,1.46s-12.63.89-19,1.11q-4.74.24-9.49.31c-3.16,0-6.32.18-9.48.1l-9.48-.1-9.47-.34c-3.15-.09-6.3-.39-9.44-.58l-4.72-.33-4.69-.46c-6.28-.48-12.5-1.42-18.72-2.26l-.17,0h-.17L113,285.42l-13.28.09-26.58.4c-17.71.33-35.43.51-53.15,1H0v2H20c17.71.47,35.43.65,53.15,1l26.57.4,13.29.09,13.18-.06c6.29.63,12.55,1.35,18.85,1.61l4.78.26,4.78.07c3.18,0,6.36.14,9.54,0l9.54-.18,9.52-.41q9.51-.46,19-1.05l19-1.18c6.32-.43,12.64-.87,19-1.2l19-1c6.32-.28,12.64-.47,19-.66,3.16-.13,6.32-.16,9.47-.19s6.32-.1,9.48,0l9.46.08,9.46.36,38,1.24c12.66.4,25.36.6,38,.9,6.34.21,12.67.11,19,.05l19-.17h20v-2Z" transform="translate(0)"/><path class="cls-2" d="M430,240.64l-38-.42-19-.18c-6.32,0-12.65-.21-19-.41l-19-.55c-6.32-.17-12.68-.41-19-.52l-19.05-.36c-6.34,0-12.68.17-19,.25s-12.67.34-19,.6l-19,.84c-12.64.65-25.28,1.19-37.92,1.7-6.32.26-12.64.3-19,.46-3.16.06-6.32.17-9.48.15l-9.47-.18-9.47-.17c-1.58,0-3.16,0-4.73-.11l-4.72-.31-18.89-1.25h-.14c-4.43,0-8.85-.08-13.28-.21s-8.86-.31-13.29-.46c-8.86-.31-17.72-.71-26.58-.8l-6.64,0a61.63,61.63,0,0,0-6.64.41c-2.22.23-4.43.56-6.65.73s-4.43.24-6.64.31c-4.43.14-8.86.35-13.29.41s-8.86.16-13.29.12H0v2H20c4.43,0,8.86,0,13.28.13s8.86.26,13.29.4c2.22.08,4.43.14,6.65.32s4.42.49,6.64.72a61.65,61.65,0,0,0,6.64.42l6.65-.05c8.86-.1,17.71-.5,26.57-.81,4.43-.14,8.86-.36,13.29-.45s8.84-.17,13.26-.22l18.91,1.17,4.75.3c1.59.07,3.17.06,4.76.09l9.52.14,9.51.13c3.17,0,6.34-.1,9.51-.13,6.34-.12,12.69-.12,19-.34q19-.64,38-1.42l19-.68c6.32-.19,12.64-.47,19-.5s12.63-.25,18.95-.22L316,242l38,.74c6.33.13,12.65.27,19,.21h19c12.68.05,25.33-.24,38-.34h20v-2Z" transform="translate(0)"/><path class="cls-2" d="M399.63,255.6c-9.08,0-20.55-.56-33.84-1.21-14.54-.71-31-1.52-48.91-1.83-35.55-.6-73,2.57-103.16,5.12a553.27,553.27,0,0,1-90.14.06c-27.62-2.14-54-2.14-73.21-2.14H0v2H50.37c19.21,0,45.51,0,73.06,2.12,15.69,1.22,30.88,1.82,45.79,1.82,15.12,0,29.94-.62,44.67-1.87,30.07-2.55,67.49-5.72,103-5.11,17.87.3,34.33,1.11,48.85,1.82,13.31.65,24.82,1.22,33.94,1.22H450v-2H399.63Z" transform="translate(0)"/><path class="cls-2" d="M399.63,281.9c-18.44,0-44.79-.79-78.15-1.79l-2.84-.09c-26.34-.88-53.36.69-79.5,2.19-37.09,2.15-75.44,4.36-112.85-.32H0v2H126.17a396.8,396.8,0,0,0,49.26,2.78c21.41,0,42.82-1.24,63.83-2.45,26.09-1.51,53.07-3.07,79.31-2.2l2.85.09c33.37,1,59.74,1.79,78.21,1.79H450v-2H399.63Z" transform="translate(0)"/><path class="cls-2" d="M430,270.24q-7.59-.23-15.19-.28c-5,0-10.08,0-15.12,0-7.87-.5-15.75-.89-23.64-1.28s-15.83-.94-23.76-1.45-15.86-.91-23.8-1.32l-11.93-.32c-4,0-8,0-12,.07s-7.94.33-11.9.57-7.9.53-11.87.89c-7.93.66-15.8,1.85-23.66,3-5.08.75-10.15,1.52-15.22,2.21-37.84,1.3-76.94,2.62-115.63-.36H106.88l-3.53-.36-11.92-.7c-8-.58-15.9-.63-23.86-.79S51.71,270,43.78,270L20,270.24H0v4H20l23.78.22,23.76.12c7.9.22,15.8.2,23.68.65l11.82.56,2.32.2-5.64-.21c-8.86-.31-17.72-.71-26.57-.8l-6.65-.05a61.63,61.63,0,0,0-6.64.41c-2.22.24-4.43.56-6.65.73s-4.43.24-6.64.32c-4.43.14-8.86.34-13.29.4s-8.86.16-13.28.13H0v2H20c4.43,0,8.86,0,13.28.13s8.86.26,13.29.41c2.22.07,4.43.13,6.65.31s4.42.5,6.64.73a61.63,61.63,0,0,0,6.64.41l6.65-.05c8.86-.09,17.71-.49,26.57-.8,4.43-.15,8.86-.36,13.29-.46s8.84-.16,13.26-.22l18.91,1.18,4.75.29c1.59.08,3.17.06,4.76.1l9.52.13,9.51.14c3.17,0,6.34-.1,9.51-.13,6.34-.12,12.69-.12,19-.35,12.66-.43,25.32-.88,38-1.42l19-.67c6.32-.19,12.64-.47,19-.51s12.63-.24,18.95-.21l18.92.39,38,.73c6.33.13,12.65.27,19,.22h19c12.68.05,25.33-.23,38-.34h20v-2H430l-38-.42-19-.18c-6.32,0-12.65-.21-19-.41l-19-.55c-6.32-.17-12.67-.41-19-.52l-19.05-.36c-6.34,0-12.68.17-19,.25s-12.68.34-19,.6l-19,.84c-12.65.65-25.29,1.19-37.93,1.7-6.13.26-12.27.3-18.4.45.83-.06,1.66-.11,2.48-.18,7.91-.66,15.8-1.46,23.69-2.28l7.64-.8c8.44-.24,16.86-.52,25.19-.81,25.3-.87,51.46-1.77,77.38-1.4,30.06,1,54.15,1.06,72.63,1.07,2.23.2,4.47.42,6.7.61h.17c5.06,0,10.12,0,15.18,0s10.13-.13,15.19-.27h20v-4Zm-220.11,5.35c-7.89.67-15.81,1.06-23.73,1.34-4,.14-7.91.17-11.87.24s-7.91,0-11.86-.16-7.9-.22-11.83-.56-7.87-.48-11.76-.94l-5.86-.58-5.89-.8c-.56-.09-1.14-.14-1.7-.22h.82c17.31,1.34,34.7,1.81,52,1.81,12.56,0,25.07-.26,37.51-.61C213.8,275.28,211.85,275.45,209.89,275.59Zm110.28-4.75c-21.05-.3-42.22.24-63,.92h.11l23.74-.93c7.87-.27,15.86-.86,23.71-1.07,3.94-.05,7.86-.25,11.8-.28l11.84,0,11.86.29c3.95.1,7.9.4,11.85.59s7.9.43,11.85.79c2.52.21,5.05.42,7.57.66C356.88,271.73,339.81,271.47,320.17,270.84Z" transform="translate(0)"/><path class="cls-2" d="M430,260.59l-17.64.08c-5.61,0-12.44.17-20.22-.2-7.78-.15-16.59-.75-26.18-1.3l-15-.89c-5.18-.3-10.54-.65-16-.78l-17-.57c-5.84-.11-11.73,0-17.77.05l-9.11.09-9.23.4c-6.19.31-12.47.45-18.77.9l-38.22,2.42c-6.4.45-12.79.73-19.16,1.08l-9.53.5-9.46.27-9.39.24c-3.11.08-6.22.21-9.27.1l-18.12-.32c-11.94-.56-23.59-1.91-34.53-2.33l-8.19-.4-4-.19-3.94-.07-15.06-.23c-9.65.06-18.5.09-26.31.29l-20.25.45L20,260.59H0v2H20l17.63.4,20.24.49c7.83.16,16.61.54,26.19.92l14.93.92,3.9.24,3.94.38,8.07.77c2.77.24,5.4.57,8.38.73l8.57.46,8.76.47c3,.11,5.9.44,9,.34l18.51-.09c3.13,0,6.25-.16,9.39-.32l9.45-.46,9.53-.51,9.55-.75c6.38-.52,12.8-1,19.18-1.58,12.78-1.17,25.55-2.33,38.12-3.35,6.29-.58,12.53-.84,18.69-1.27l9.19-.58,9.07-.27c6-.12,11.91-.42,17.65-.39l17,.42c5.52.08,10.86.38,16,.64l15,.75c9.61.54,18.41,1.14,26.26,1.28,7.84.33,14.64.23,20.26.28l17.63.08h20v-2Z" transform="translate(0)"/><path class="cls-2" d="M399.63,235.65c-19.22,0-45.54,0-79.46-1.08-26-.37-52.16.54-77.49,1.41-38.07,1.31-77.44,2.67-116.39-.33H0v2H126.22c17.3,1.34,34.69,1.81,52,1.81,21.71,0,43.31-.74,64.51-1.47,25.3-.88,51.46-1.78,77.38-1.41,33.93,1.07,60.27,1.07,79.5,1.07H450v-2H399.63Z" transform="translate(0)"/><path class="cls-2" d="M399.63,410.91c-18.39,0-44.65-.78-77.89-1.78l-3.1-.09c-26.34-.87-53.37.68-79.5,2.19-37.09,2.14-75.44,4.36-112.85-.32H0v2H126.17a396.8,396.8,0,0,0,49.26,2.78c21.41,0,42.82-1.24,63.82-2.45,26.09-1.51,53.08-3.07,79.33-2.19l3.1.09c33.26,1,59.53,1.78,77.95,1.78H450v-2H399.63Z" transform="translate(0)"/><path class="cls-2" d="M430,415.9l-19-.17c-6.34,0-12.67-.09-19-.35-12.65-.41-25.28-.73-37.95-1.24l-37.95-1.27-9.54-.37-9.53-.09c-3.18,0-6.36.09-9.53.16s-6.35.16-9.52.33c-6.35.24-12.68.74-19,1.18l-19,1.53c-6.31.56-12.62,1-18.94,1.46s-12.63.88-19,1.11q-4.74.24-9.49.3c-3.16,0-6.32.19-9.48.11l-9.48-.1-9.47-.34c-3.15-.09-6.3-.39-9.44-.58l-4.72-.33-4.69-.47c-6.28-.48-12.5-1.41-18.72-2.25l-.17,0h-.17L113,414.44l-13.28.09-26.58.39c-17.71.33-35.43.51-53.15,1H0v2H20c17.71.47,35.43.65,53.15,1l26.57.39,13.29.09,13.18-.05c6.29.63,12.55,1.34,18.85,1.61l4.78.26,4.78.07c3.18,0,6.36.13,9.54,0l9.54-.17,9.52-.41q9.51-.46,19-1.06l19-1.18c6.32-.43,12.64-.86,19-1.19l19-1c6.32-.28,12.64-.46,19-.65,3.16-.13,6.32-.16,9.47-.19s6.32-.11,9.48,0l9.46.09,9.46.35,38,1.24c12.66.4,25.36.6,38,.9,6.34.22,12.67.11,19,.05l19-.17h20v-2Z" transform="translate(0)"/><path class="cls-2" d="M430,405.93l-38-.42-19-.18c-6.32,0-12.65-.21-19-.41l-19-.55c-6.32-.17-12.68-.41-19-.52l-19.05-.36c-6.34,0-12.68.17-19,.25s-12.67.34-19,.6l-19,.84c-12.64.65-25.28,1.19-37.92,1.69-6.32.27-12.64.31-19,.47-3.16.06-6.32.17-9.48.15l-9.47-.18-9.47-.17c-1.58,0-3.16,0-4.73-.11l-4.72-.31-18.89-1.25h-.14c-4.43,0-8.85-.08-13.28-.21s-8.86-.31-13.29-.46c-8.86-.31-17.72-.71-26.58-.8l-6.64-.05a61.63,61.63,0,0,0-6.64.41c-2.22.23-4.43.56-6.65.73s-4.43.24-6.64.31c-4.43.14-8.86.35-13.29.41s-8.86.16-13.29.12H0v2H20c4.43,0,8.86,0,13.28.13s8.86.26,13.29.4c2.22.08,4.43.14,6.65.32s4.42.49,6.64.72a61.65,61.65,0,0,0,6.64.42l6.65-.05c8.86-.1,17.71-.5,26.57-.81,4.43-.14,8.86-.36,13.29-.45s8.84-.17,13.26-.22l18.91,1.17,4.75.3c1.59.07,3.17.06,4.76.09l9.52.14,9.51.14c3.17,0,6.34-.11,9.51-.13,6.34-.13,12.69-.12,19-.35q19-.64,38-1.42l19-.67c6.32-.2,12.64-.47,19-.51s12.63-.24,18.95-.22l18.92.4,38,.73c6.33.13,12.65.27,19,.22h19c12.68.05,25.33-.24,38-.34h20v-2Z" transform="translate(0)"/><path class="cls-2" d="M399.63,420.89c-9.08,0-20.55-.56-33.84-1.21-14.54-.72-31-1.52-48.91-1.83-35.55-.59-73,2.57-103.16,5.12a553.3,553.3,0,0,1-90.14,0c-27.62-2.13-54-2.13-73.21-2.13H0v2H50.37c19.21,0,45.51,0,73.06,2.12,15.69,1.21,30.88,1.82,45.79,1.82,15.12,0,29.94-.62,44.67-1.87,30.07-2.55,67.49-5.72,103-5.11,17.87.3,34.33,1.11,48.85,1.82,13.31.65,24.82,1.22,33.94,1.22H450v-2H399.63Z" transform="translate(0)"/><path class="cls-2" d="M55.81,399.61l2.46,0,4.88.06,4.79,0,4.61.23c3,.19,6,.19,8.76.38s5.44.41,7.89.56,4.7.28,6.68.5l5.17.44c2.87.21,4.53.28,4.53.28s-1.57-.48-4.36-1.26c-1.39-.38-3.08-.86-5-1.34-1-.25-2-.54-3.12-.79L89.58,398c-2.43-.46-5.07-1-7.88-1.43s-5.82-.74-8.92-1.06L68,395.07c-1.59-.12-3.18-.16-4.8-.2l-4.88-.14-2.45-.07-.61,0h-.7l-1.24.05-9.86.53c-3.26.13-6.4.53-9.47.77s-6,.6-8.85.89-5.46.65-7.89.93-4.64.48-6.62.63-3.7.18-5.09.08a22.47,22.47,0,0,1-3.32-.26l-1.18-.15,1.11.41a17.38,17.38,0,0,0,3.22,1,40.14,40.14,0,0,0,5.23.84c2,.17,4.31.32,6.8.32s5.18,0,8-.08,5.82-.08,8.87-.21l19.17-.7,1.22-.06.3,0h.84Z" transform="translate(0)"/><path class="cls-2" d="M229.32,400.7c6-1.11,14.52-2.47,24.8-3.9,5.14-.76,10.72-1.4,16.62-2.13s12.15-1.23,18.58-2c6.46-.46,13.13-1.12,19.92-1.47s13.68-.84,20.58-.91l10.34-.32,10.26,0c3.4.05,6.77,0,10.1.06l9.85.36c3.24.13,6.42.2,9.53.38l9.11.66,8.63.62c2.79.2,5.46.59,8,.86l14.08,1.54,10.79,1.7c6,.92,9.45,1.39,9.45,1.39s-3.36-.86-9.27-2.27l-10.68-2.51c-4.16-.81-8.87-1.62-14-2.48-2.58-.41-5.25-.94-8-1.29l-8.66-1-9.15-1c-3.13-.33-6.34-.42-9.6-.65l-9.93-.59c-3.35-.19-6.75-.16-10.18-.22l-10.35-.13-10.43.25c-7,.13-13.92.65-20.76,1.08-3.42.17-6.8.52-10.14.87l-9.89,1c-6.47.84-12.73,1.61-18.63,2.59l-8.59,1.41c-2.77.48-5.43,1-8,1.52-5.13.93-9.79,2.05-13.92,3s-7.7,1.87-10.64,2.64-5.23,1.45-6.79,1.92l-2.39.73,2.45-.49Z" transform="translate(0)"/><polygon class="cls-2" points="20 448 0 448 0 450 20 450 430 450 450 450 450 448 430 448 20 448"/><path class="cls-2" d="M298.53,445.88c6.32.17,12.84.45,19.48.55l20.11.38,20.12.14c6.63.09,13.16,0,19.48,0s12.43-.13,18.23-.24,11.27-.23,16.33-.39c20.23-.57,33.72-1.57,33.72-1.57s-13.46-1.35-33.67-2.44c-5.05-.28-10.53-.58-16.32-.81s-11.89-.54-18.21-.7-12.84-.46-19.48-.55l-20.11-.38-20.11-.14c-6.64-.07-13.17,0-19.49.05s-12.43.14-18.22.24-11.27.24-16.33.39c-20.23.57-33.73,1.56-33.73,1.56s13.47,1.35,33.68,2.43c5.05.29,10.52.59,16.31.81S292.21,445.72,298.53,445.88Z" transform="translate(0)"/><path class="cls-2" d="M430,425.88l-17.64.07c-5.61,0-12.44.17-20.22-.19-7.78-.15-16.59-.75-26.18-1.3l-15-.89c-5.18-.3-10.54-.66-16-.79l-17-.57c-5.84-.1-11.73.05-17.77.06l-9.11.09-9.23.4c-6.19.3-12.47.44-18.77.9l-38.22,2.42c-6.4.45-12.79.72-19.16,1.08l-9.53.5-9.46.26-9.39.25c-3.11.08-6.22.21-9.27.09L149.93,428c-11.94-.56-23.59-1.91-34.53-2.33l-8.19-.4-4-.2L99.26,425l-15.06-.23c-9.65.06-18.5.08-26.31.29l-20.25.45L20,425.88H0v2H20l17.63.4,20.24.49c7.83.16,16.61.54,26.19.92l14.93.92,3.9.24,3.94.38,8.07.77c2.77.24,5.4.57,8.38.73l8.57.46,8.76.47c3,.11,5.9.44,9,.34l18.51-.09c3.13,0,6.25-.16,9.39-.32l9.45-.46,9.53-.51,9.55-.75c6.38-.52,12.8-1,19.18-1.58,12.78-1.17,25.55-2.33,38.12-3.35,6.29-.58,12.53-.84,18.69-1.27l9.19-.58,9.07-.27c6-.12,11.91-.42,17.65-.39l17,.42c5.52.08,10.86.38,16,.64l15,.75c9.61.55,18.41,1.14,26.26,1.28,7.84.33,14.64.23,20.26.29l17.63.07h20v-2Z" transform="translate(0)"/><path class="cls-2" d="M414.81,435.25c-5-.05-10.08,0-15.12,0-7.87-.51-15.75-.89-23.64-1.28s-15.83-.94-23.76-1.45-15.86-.91-23.8-1.32l-11.93-.32c-4,0-8,0-12,.07s-7.94.33-11.9.57-7.9.53-11.87.88c-7.93.67-15.8,1.86-23.66,3s-15.7,2.39-23.58,3.24c-3.93.47-7.88.85-11.82,1.23s-7.89.76-11.84,1.05c-7.9.67-15.82,1.05-23.74,1.33-3.95.15-7.91.17-11.87.25s-7.91,0-11.86-.16-7.89-.22-11.83-.56-7.87-.49-11.76-.95l-5.86-.57-5.89-.81c-3.91-.59-7.89-.94-11.85-1.35l-11.89-1.21-11.92-.71c-8-.57-15.9-.62-23.86-.79s-15.87-.09-23.79,0L20,435.53H0v4H20l20.94.19c-1,.06-2.06.11-3,.21-3.32.24-6.52.61-9.54,1s-5.87.83-8.48,1.33-5,.92-7.11,1.44-3.94.88-5.43,1.3l-4.69,1.31,4.84-.48,5.53-.54,7.17-.64,8.47-.63c3-.15,6.17-.38,9.45-.49,1.64-.08,3.3-.12,5-.14s3.35-.13,5.1-.1l5.2,0,5.22.15c3.5.09,7,.35,10.46.48s6.89.34,10.19.4c6.63.18,12.78.27,18.08.32l7.24-.05c2.15,0,4-.11,5.57-.16l4.85-.24-17.56-1.56-18-1.53-10.14-.89c-1.67-.15-3.38-.28-5.09-.39l3.32,0c7.9.22,15.8.2,23.68.65l11.82.55,11.78,1.06c3.93.35,7.85.67,11.8,1.14l5.91.64,6,.42c8,.55,15.95.57,23.91.4,4-.09,7.95-.32,11.92-.48s7.93-.49,11.88-.82c7.92-.66,15.81-1.46,23.69-2.28l23.65-2.47c3.94-.41,7.9-.7,11.85-1L257.3,437l23.74-.92c7.87-.28,15.86-.87,23.71-1.07,3.94-.06,7.86-.26,11.8-.28l11.84,0,11.86.29c3.95.1,7.9.39,11.85.59s7.9.43,11.85.79,7.89.64,11.83,1.07c7.88.82,15.78,1.6,23.69,2.27h.16c5.06,0,10.12,0,15.19,0s10.12-.13,15.18-.27h20v-4H430Q422.41,435.31,414.81,435.25Z" transform="translate(0)"/><path class="cls-2" d="M399.63,430.87c-8.24,0-18.7-.75-30.82-1.62-15.92-1.15-34-2.45-53.32-2.54-26.57-.34-53.49,2.2-79.52,4.67-37,3.5-75.35,7.13-113,2.37-27-2.88-53.37-2.88-72.62-2.88H0v2H50.37c19.2,0,45.5,0,72.39,2.87A313,313,0,0,0,161.93,438c24.94,0,49.86-2.36,74.23-4.67,26-2.46,52.82-5,79.31-4.66,19.3.1,37.31,1.39,53.19,2.54,12.16.87,22.66,1.63,31,1.63H450v-2H399.63Z" transform="translate(0)"/><path class="cls-2" d="M398.13,359c-59.25-13.16-115.89-3.42-175.87,6.9-13.54,2.33-27.55,4.74-41.41,6.83-20.58,3.07-40.22,2.89-58.41-.56-6.46-1-12.75-2-18.85-2.95-20.69-3.3-38.55-6.15-53.22-6.15H0v2H50.37c14.52,0,32.3,2.84,52.9,6.13,6.11,1,12.41,2,18.83,2.95a162.8,162.8,0,0,0,30.31,2.76,194,194,0,0,0,28.74-2.2c13.88-2.09,27.9-4.5,41.46-6.83,59.77-10.28,116.23-20,175.11-6.92,20.55,4.07,32.16,4.12,32.28,4.12h20v-2H430C429.88,363.05,418.45,363,398.13,359Z" transform="translate(0)"/><path class="cls-2" d="M398.19,363.74c-56.24-12.56-112.5-3.14-166.91,6-19.42,3.25-39.49,6.62-59.46,9-17.08,3-33.36.9-49.09-1.13-8-1.18-15.71-2.45-23.17-3.68C80.5,370.75,64.05,368,50.37,368H0v2H50.37c13.51,0,29.89,2.7,48.86,5.83,7.47,1.23,15.19,2.5,23.23,3.69,10.16,1.31,20.53,2.65,31.23,2.65a105.82,105.82,0,0,0,18.42-1.53c20-2.36,40.06-5.73,59.5-9,54.22-9.09,110.28-18.48,166.16-6C418.27,370,429.88,370,430,370h20v-2H430C429.88,368,418.45,368,398.19,363.74Z" transform="translate(0)"/><path class="cls-2" d="M430,344.09l-.08-1s-1.54.13-4.54.17a126.44,126.44,0,0,1-13-.72c-5.57-.63-12.29-1.72-20-3.22s-16.55-2.65-26.2-3.56-20.15-1.49-31.26-1.55-22.82.27-34.89,1.23c-24.16,1.81-49.74,5.32-75.24,9.11l-38,5.66c-6.27.9-12.51,1.81-18.66,2.61a106.94,106.94,0,0,1-18.19.72c-12-.48-23.5-2.61-34.47-4.23s-21.35-3.08-31-4.09-18.4-2.44-26.36-3.13c-2-.13-3.86-.23-5.7-.27s-3.67-.05-5.34,0c-3.39,0-6.52.09-9.33.16C26.44,342.3,20,343.1,20,343.1H0v2H20s6.44.8,17.72,1.15c2.82.07,5.94.16,9.34.16s7,.08,11,0c7.74-.14,16.66-.44,26.25.6s20,2.15,30.93,3.85,22.45,3.95,34.61,4.54a108.83,108.83,0,0,0,18.53-.55c6.19-.76,12.41-1.64,18.7-2.51l38.08-5.46c25.5-3.64,51-7.16,75.08-8.89,12-.86,23.67-1.41,34.71-1.47s21.49.37,31.09,1.14,18.38,1.93,26.11,3.2L403,342.69c3.33.6,6.48.95,9.28,1.33,5.62.7,10.08.92,13.12,1.07,2.74.07,4.36,0,4.66,0h20v-2H430Z" transform="translate(0)"/><path class="cls-2" d="M430,358.06s-1.57,0-4.57-.26-7.36-.74-12.91-1.4c-2.78-.41-5.86-1-9.22-1.53l-5.17-.88-5.63-1a264.53,264.53,0,0,0-26.26-3.72c-4.84-.35-9.88-.89-15.12-1l-8-.27c-2.7-.07-5.44,0-8.23,0-11.13,0-22.85.73-34.94,1.66-12.07,1.12-24.53,2.49-37.11,4.31s-25.35,3.73-38.09,5.69-25.47,3.88-38,5.56l-9.41,1.19-2.34.3-2.28.2-4.63.4c-6.14.69-12.22.66-18.21.81-3,.05-5.91-.24-8.83-.34a79.24,79.24,0,0,1-8.7-.68L123.78,366c-2.74-.35-5.57-.83-8.29-1.23-10.94-1.71-21.34-3.11-30.94-4.45-4.82-.6-9.49-1-13.9-1.53s-8.59-.69-12.52-.84l-5.69-.21-1.37-.05-.73,0h-.66l-2.61,0-9.34.11L20,358.06H0v2H20l17.73.21,9.34.12,2.61,0h.66l.61,0,1.37.08,5.69.35c3.92.24,8.11.38,12.43,1s8.9,1,13.67,1.7l30.83,4.81c2.75.41,5.46.89,8.36,1.27l8.56,1.13a82.24,82.24,0,0,0,8.87.73c3,.12,6.07.43,9.12.4,6.1-.13,12.32-.08,18.56-.75l4.7-.38c.8-.07,1.55-.11,2.4-.21l2.33-.3,9.4-1.22c12.61-1.72,25.38-3.66,38.12-5.68s25.46-4,38-5.78,24.93-3.25,36.91-4.49c12-1,23.63-1.87,34.66-1.93,2.76,0,5.48-.13,8.16-.08l7.91.2c5.19,0,10.18.54,15,.83a256.28,256.28,0,0,1,26,3.29l5.6.95,5.29.82c3.37.5,6.44,1,9.25,1.39,5.65.59,10.09,1.12,13.14,1.22s4.69.2,4.69.2h20v-2Z" transform="translate(0)"/><path class="cls-2" d="M398.09,344.8C341,333.05,285.72,341.28,227.21,350c-15.8,2.35-32.14,4.78-48.37,6.75-17.27,2.72-35.36,2.38-56.93-1.1-22.33-3.52-50.65-7.56-71.54-7.56H0v2H50.37c20.75,0,49,4,71.23,7.53a211.83,211.83,0,0,0,33.75,2.9,152.93,152.93,0,0,0,23.77-1.79c16.22-2,32.57-4.4,48.39-6.76,58.33-8.68,113.43-16.88,170.23-5.2,20.55,3.28,32.14,3.32,32.26,3.32h20v-2H430C429.88,348.08,418.43,348,398.09,344.8Z" transform="translate(0)"/><path class="cls-2" d="M398.09,349.51c-54.27-11.94-109.43-3.55-162.78,4.57-21.44,3.26-43.61,6.64-65.44,8.64-17.52,2.19-33.15,1.69-47.85-1.54-26.92-4.17-52.34-8.11-71.65-8.11H0v2H50.37c19.15,0,44.51,3.93,71.29,8.08a128.76,128.76,0,0,0,27.76,2.91,167.83,167.83,0,0,0,20.67-1.34c21.85-2,44-5.39,65.53-8.66,53.16-8.09,108.13-16.46,162.08-4.58,20.59,3.55,32.18,3.6,32.3,3.6h20v-2H430C429.88,353.07,418.44,353,398.09,349.51Z" transform="translate(0)"/><path class="cls-2" d="M398.71,383.55c-29.2-7.94-60.61-9.48-98.8-4.86-21.8,1.84-43.65,6.6-64.77,11.21-36,7.85-73.16,16-110.7,9.6-11.2-1.54-21.67-3.45-31.8-5.29-16.34-3-30.45-5.55-42.27-5.55H0v2H50.37c11.64,0,25.67,2.55,41.91,5.51,10.15,1.85,20.64,3.76,31.85,5.3a170.28,170.28,0,0,0,28.64,2.32c28.08,0,55.78-6,82.8-11.94,21.06-4.59,42.84-9.34,64.55-11.18,38-4.59,69.12-3.06,98.09,4.81,20,4.92,31.66,5.18,31.77,5.18l0-1v1h20v-2H430C429.9,388.66,418.45,388.4,398.71,383.55Z" transform="translate(0)"/><path class="cls-2" d="M440.15,402.92c-6.28-.56-15.24-1.49-26-2.29s-23.35-1.66-36.84-2.37c-6.74-.33-13.71-.68-20.8-.94L335,396.65c-7.21-.1-14.41-.27-21.51-.29s-14.07,0-20.84.1-13.29.21-19.48.52-12.05.49-17.45.95-10.34.74-14.71,1.33-8.19.85-11.3,1.44c-6.23,1.09-9.75,1.78-9.75,1.78s3.6-.29,9.86-.89c3.11-.36,7-.38,11.32-.62s9.32-.26,14.7-.4,11.23-.11,17.4-.15,12.69.08,19.42.09,13.71.26,20.78.3,14.26.3,21.45.44l79.11,2,26.1.55,9.9.16-2.57-.28C445.74,403.51,443.28,403.2,440.15,402.92Z" transform="translate(0)"/><path class="cls-2" d="M398.56,378.79c-59.24-14.77-115.83-3.51-175.74,8.41-9.16,1.82-18.62,3.71-28,5.47-22.56,4.69-45.07,5.2-70.83,1.6-10.66-1.49-20.69-3.29-30.38-5-16.7-3-31.11-5.58-43.21-5.58H0v2H50.37c11.92,0,26.26,2.57,42.86,5.54,9.71,1.74,19.75,3.54,30.45,5a234.5,234.5,0,0,0,32.44,2.38,189.91,189.91,0,0,0,39.06-4c9.4-1.77,18.87-3.65,28-5.47,59.68-11.88,116.06-23.1,174.87-8.43,20.18,4.88,31.45,4.94,31.92,4.94h20v-2H430C429.89,383.67,418.47,383.61,398.56,378.79Z" transform="translate(0)"/><path class="cls-2" d="M430,372.53s-1.53,0-4.53-.25-7.34-.78-12.89-1.49c-2.77-.45-5.85-1.08-9.2-1.69L392.56,367c-3.9-.7-8-1.69-12.39-2.34l-13.84-2c-4.84-.48-9.9-.88-15.13-1.35s-10.68-.41-16.25-.63-11.31.17-17.17.23c-5.86.26-11.82.82-17.9,1.22-6.05.72-12.22,1.44-18.42,2.31-6.16,1.1-12.34,2.07-18.67,3.32L225,375.47c-12.68,2.42-25.38,4.59-37.94,6.08a273.78,273.78,0,0,1-36.92,2l-8.89-.37-8.61-.76c-5.79-.77-11.39-1.58-16.86-2.37-11-1.68-21.33-3.26-31-4.59s-18.52-2.31-26.55-2.76c-2-.08-3.88-.08-5.72-.12-1,0-1.78,0-2.76,0l-2.61,0-9.37.08c-11.32,0-17.78-.1-17.78-.1H0v3H20s6.46-.13,17.78-.1l9.37.08,2.61,0c.79,0,1.76.08,2.66.11,1.83.11,3.75.18,5.7.33,7.69.69,16.45,2.12,25.94,3.91s19.82,3.89,30.83,5.64l8.4,1.34,8.59,1.1,9,.72,9.13.3a245.27,245.27,0,0,0,37.62-2.75c12.69-1.81,25.42-4.37,38.08-7.13l37.69-8.3,2.32-.5c.69-.16,1.54-.28,2.3-.43l4.67-.82L282,367.4c6.15-.87,12.22-1.59,18.2-2.33,6-.42,11.93-1,17.73-1.25,5.8-.09,11.49-.39,17-.29s10.92.23,16.11.59,10.2.83,15,1.29l13.72,1.92c4.35.64,8.42,1.59,12.27,2.33l10.84,2.16c3.35.64,6.41,1.29,9.21,1.77,5.67.78,10.12,1.47,13.19,1.63s4.74.3,4.74.3h20v-3Z" transform="translate(0)"/><path class="cls-2" d="M398.41,374c-60.84-14.25-118.63-3.06-179.81,8.8-8.55,1.65-17.14,3.31-25.81,4.92A187.06,187.06,0,0,1,123.52,389c-10-1.43-19.5-3.09-28.67-4.7-17.19-3-32-5.61-44.48-5.61H0v2H50.37c12.28,0,27,2.59,44.14,5.58,9.18,1.61,18.68,3.27,28.71,4.7a197.51,197.51,0,0,0,31.84,2.63,186.06,186.06,0,0,0,38.12-3.95c8.66-1.6,17.25-3.27,25.8-4.92,61-11.81,118.55-23,179-8.81,20.3,4.71,31.57,4.77,32,4.77h20v-2H430C429.89,378.68,418.46,378.62,398.41,374Z" transform="translate(0)"/><path class="cls-2" d="M398.22,334.81c-62.67-11.29-125.78-2.07-186.82,6.85-9.5,1.39-19,2.78-28.5,4.1a247.45,247.45,0,0,1-61-2.06c-24.34-4-50.42-6.26-71.53-6.26H0v2H50.37c21,0,47,2.27,71.22,6.24a264,264,0,0,0,39.59,3.11c7.4,0,14.7-.35,22-1,9.53-1.32,19.05-2.71,28.55-4.1,60.88-8.9,123.83-18.1,186.22-6.86,20.4,2.62,32,2.65,32.09,2.65h20v-2H430C429.88,337.44,418.42,337.41,398.22,334.81Z" transform="translate(0)"/><path class="cls-2" d="M430,86.64s-6.41,0-17.62-.37c-5.63-.16-12.38-.23-20.19-.7L366,84.12l-7.36-.25c-2.5,0-5-.31-7.64.33a29.31,29.31,0,0,1-3.93.66c-1.31.08-2.64.06-4,.1l-8.14.15c-11,.2-22.61.23-34.67.21-6,0-12.12.23-18.31.27s-12.45.19-18.76.39L225,87c-12.81.27-25.61.64-38.21.71-12.61.24-25,0-37-.16l-17.68-.7-4.31-.17-1.07,0-.59,0H0v3H126.6l1.07,0,4.31.17,17.68.7c12,.13,24.5.39,37.11.15,12.63-.06,25.45-.44,38.26-.74s25.62-.71,38.23-.91c6.3-.15,12.55-.21,18.73-.23s12.27-.11,18.27,0c12,.21,23.6.47,34.61.92l8.14.32c1.33.07,2.66.08,4,.19a31,31,0,0,1,3.91.74c2.58.7,5.13.48,7.63.5l7.35-.09,26.24-.88L412.38,90c11.21-.32,17.62-.36,17.62-.36h20v-3Z" transform="translate(0)"/><path class="cls-2" d="M430,82.15s-1.6.15-4.61.31-7.4.34-13,.54-12.41.19-20.22.07l-26.23-.26-31-.32c-11-.15-22.62-.16-34.63-.18l-18.3,0c-6.18,0-12.44,0-18.74.14L225,83.2c-12.82.21-25.62.06-38.23.11s-25-.14-37-.32-23.62-.39-34.63-.36l-31-.16L20,82.15H0v2H20l64.06-.33,31-.16c11-.1,22.61.11,34.63.22s24.42.31,37,.19,25.43,0,38.24-.25l38.23-.93c6.3-.21,12.56-.2,18.74-.2l18.29,0c12,0,23.62-.06,34.63,0l31,.21,26.23.17c7.81.06,14.61.06,20.22.2s10,.31,13,.53,4.6.31,4.61.31h20v-2Z" transform="translate(0)"/><path class="cls-2" d="M399.63,92.79c-19.22,0-45.54,0-79.46-1.07-26-.37-52.16.53-77.49,1.4-38.07,1.32-77.44,2.67-116.39-.33H0v2H126.22c17.3,1.34,34.69,1.81,52,1.81,21.71,0,43.31-.74,64.51-1.47,25.3-.87,51.46-1.78,77.38-1.41,33.93,1.08,60.27,1.08,79.5,1.08H450v-2H399.63Z" transform="translate(0)"/><path class="cls-2" d="M430,72.17l-64.06.17L225,72.28l-75.28-.08c-12,0-23.62,0-34.63-.15s-21.42-.49-31-.68-18.42-.24-26.22-.13l-10.94.09-9.28.21c-5.61.1-10,.3-13,.41l-4.6.22H0v2H20l4.6.22c3,.12,7.41.31,13,.42L46.9,75l10.93.08c7.81.12,16.62,0,26.23-.12s20-.54,31-.68,22.63-.12,34.64-.15L225,74.1,365.93,74l64.07.17h20v-2Z" transform="translate(0)"/><path class="cls-2" d="M323.73,77.16c-32.77-.87-68.58-.36-102.45.24-20.83.37-41.38.17-61.26,0-11.66-.11-22.67-.22-33.73-.22H0v2H126.29c11,0,22.06.1,33.71.22s23.69.22,35.82.22c8.43,0,16.94,0,25.5-.2,33.85-.6,69.63-1.11,102.38-.24H450v-2H323.73Z" transform="translate(0)"/><path class="cls-2" d="M399.63,112.75c-9.08,0-20.55-.56-33.84-1.22-14.54-.71-31-1.52-48.91-1.82-35.55-.6-73,2.57-103.16,5.12a553.29,553.29,0,0,1-90.14,0c-27.62-2.13-54-2.13-73.21-2.13H0v2H50.37c19.21,0,45.51,0,73.06,2.12,15.69,1.21,30.88,1.82,45.78,1.82,15.12,0,29.94-.63,44.68-1.87,30.07-2.55,67.49-5.72,103-5.12,17.87.31,34.33,1.12,48.85,1.83,13.31.65,24.82,1.22,33.94,1.22H450v-2H399.63Z" transform="translate(0)"/><path class="cls-2" d="M430,67.18l-64.06.14L225,67.11c-12.82,0-25.63-.78-38.24-.64s-25,.24-37,.44-23.62.3-34.63.29l-31,0H37.62L20,67.18H0v2H20l17.62-.07H84.06c19.22.07,41.64-.06,65.67.29,12,.19,24.42.38,37,.39s25.43-.69,38.24-.7l140.94,0,64.06.13h20v-2Z" transform="translate(0)"/><path class="cls-2" d="M412.36,117.81c-5.61,0-12.44.17-20.22-.19-7.78-.15-16.59-.75-26.18-1.3l-15-.89c-5.18-.3-10.54-.66-16-.78l-17-.57c-5.84-.11-11.73,0-17.77,0l-9.11.09-9.23.4c-6.19.31-12.47.45-18.77.9l-38.22,2.42c-6.4.45-12.79.72-19.16,1.08l-9.53.5-9.46.26-9.39.25c-3.11.08-6.22.21-9.27.1l-18.12-.32c-11.94-.56-23.59-1.91-34.53-2.33l-8.19-.4-4-.19-3.94-.07-15.06-.23c-9.65.06-18.5.09-26.31.29l-20.25.45L20,117.74H0v2H20l17.63.41,20.24.49c7.83.15,16.61.54,26.19.92l14.93.92,3.9.24,3.94.38,8.07.76c2.77.24,5.4.58,8.38.74l8.57.46,8.76.47c3,.1,5.9.44,9,.34l18.51-.1c3.13,0,6.25-.16,9.39-.31l9.45-.47,9.53-.5,9.55-.75c6.38-.53,12.8-1,19.18-1.58,12.78-1.17,25.55-2.34,38.12-3.35,6.29-.58,12.53-.84,18.69-1.27l9.19-.59,9.07-.27c6-.12,11.91-.41,17.65-.38l17,.41c5.52.08,10.86.39,16,.64l15,.76c9.61.54,18.41,1.13,26.26,1.28,7.84.33,14.64.23,20.26.28l17.63.07h20v-2H430Z" transform="translate(0)"/><path class="cls-2" d="M392,97.37l-19-.18c-6.32,0-12.65-.22-19-.41l-19-.55c-6.32-.17-12.68-.41-19-.52l-19.05-.36c-6.34,0-12.68.17-19,.25s-12.67.34-19,.6l-19,.84c-12.64.65-25.28,1.19-37.92,1.69-6.32.27-12.64.31-19,.47-3.16.06-6.32.17-9.48.15l-9.47-.18L154.77,99c-1.58,0-3.16,0-4.73-.11l-4.72-.31-18.89-1.25h-.14c-4.43,0-8.85-.08-13.28-.21s-8.86-.31-13.29-.46c-8.86-.31-17.72-.71-26.58-.8l-6.64,0a61.63,61.63,0,0,0-6.64.41c-2.22.23-4.43.56-6.65.73s-4.43.24-6.64.31c-4.43.14-8.86.35-13.29.41s-8.86.16-13.29.12H0v2H20c4.43,0,8.86,0,13.28.13s8.86.26,13.29.4c2.22.08,4.43.14,6.65.32s4.42.49,6.64.72a61.65,61.65,0,0,0,6.64.42l6.65,0c8.86-.09,17.71-.49,26.57-.8,4.43-.15,8.86-.37,13.29-.46s8.84-.17,13.26-.22l18.91,1.18,4.75.29c1.59.07,3.17.06,4.76.09l9.52.14,9.51.14c3.17,0,6.34-.11,9.51-.13,6.34-.13,12.69-.12,19-.35q19-.64,38-1.42l19-.67c6.32-.2,12.64-.47,19-.51s12.63-.24,18.95-.22l18.92.4,38,.73c6.33.13,12.65.27,19,.22h19c12.68,0,25.33-.24,38-.34h20v-2H430Z" transform="translate(0)"/><path class="cls-2" d="M411,107.59c-6.34,0-12.67-.1-19-.35-12.65-.42-25.28-.73-37.95-1.24l-37.95-1.27-9.54-.37-9.53-.1c-3.18,0-6.36.09-9.53.17s-6.35.15-9.52.33c-6.35.23-12.68.73-19,1.18l-19,1.53c-6.31.56-12.62,1-18.94,1.45s-12.63.89-19,1.12q-4.74.24-9.49.3c-3.16,0-6.32.18-9.48.11l-9.48-.1L164.2,110c-3.15-.09-6.3-.4-9.44-.58l-4.72-.34-4.69-.46c-6.28-.48-12.5-1.41-18.72-2.25l-.17,0h-.17l-13.29,0-13.28.09-26.58.39c-17.71.33-35.43.51-53.15,1H0v2H20c17.71.47,35.43.65,53.15,1l26.57.39,13.29.09,13.18-.06c6.29.64,12.55,1.35,18.85,1.61l4.78.27,4.78.06c3.18,0,6.36.14,9.54.05l9.54-.18,9.52-.41q9.51-.45,19-1l19-1.18c6.32-.43,12.64-.86,19-1.19l19-1c6.32-.28,12.64-.46,19-.65,3.16-.13,6.32-.16,9.47-.19s6.32-.11,9.48,0l9.46.09,9.46.35L354,109c12.66.4,25.36.6,38,.9,6.34.22,12.67.11,19,0l19-.17h20v-2H430Z" transform="translate(0)"/><path class="cls-2" d="M399.63,102.77c-18.39,0-44.65-.78-77.89-1.78l-3.1-.09c-26.34-.88-53.37.68-79.5,2.19-37.09,2.14-75.44,4.36-112.85-.32H0v2H126.17a396.79,396.79,0,0,0,49.26,2.77c21.41,0,42.82-1.23,63.82-2.45,26.09-1.5,53.08-3.06,79.33-2.19l3.1.1c33.26,1,59.53,1.78,77.95,1.78H450v-2H399.63Z" transform="translate(0)"/><path class="cls-2" d="M105.5,30.24c-6.75,1.18-13.38,2.34-20.19,3.19-5,.63-12.7.34-17.3,1.63,23.08,1.61,25.21.36,39.67-1.58,13.33-1.8,27.3-3.18,40.89-2.1C137.08,25.85,118,28.06,105.5,30.24Z" transform="translate(0)"/><polygon class="cls-2" points="20 15.39 0 15.39 0 17.38 20 17.38 430 17.38 450 17.38 450 15.39 430 15.39 20 15.39"/><polygon class="cls-2" points="20 9.9 0 9.9 0 11.89 20 11.89 430 11.89 450 11.89 450 9.9 430 9.9 20 9.9"/><polygon class="cls-2" points="0 0 0 1 20 1 430 1 450 1 450 0 0 0"/><path class="cls-2" d="M20,20.12H0v5H81.34c-4.86.53-10.06,1.05-14.69,1.5H0v2H21.71l26.71,2.06c-7.86.44-19.2.75-28.32.94H0v2H25.5L51.55,35.8l.07.09,0,0-15,.66H0v2H25.12l33.4,3H0v2H450v-2H88.46l.24,0,3.63-.3c5.06-.53,10.39-1.39,16-2.31l.64-.11c2.35.08,6.15.19,11.16.31l16,.26c6.16.11,13.12.08,20.71.13s15.81,0,24.5-.08,17.87-.3,27.35-.46,19.29-.3,29.25-.39l30.2-.06,111.3-.14,50.59.17h20v-2H430l-50.59.18-111.3-.14-30.2-.06c-10-.09-19.76-.18-29.25-.39s-18.65-.39-27.35-.46l-6.39-.05-20.59-1.88.34-.19H450v-2H215.71L183.65,29.4H194l96.16-.14,96.17-.39L430,28.6h20v-2H430l-43.71-.26L290.12,26,194,25.81H177.55l-7.89-.69H450v-5H20ZM149.5,31.91a42.06,42.06,0,0,1-4.69.49c-1.59.09-3.2.12-4.82.17s-3.27.15-4.86.24l-9.43.55c-6.31.42-12.29,1.37-17.91,2.27s-10.91,1.73-15.73,2.22l-3.63.28-.89.07-.82,0L85,38.28l-3.24.1c-1,0-2.11,0-3.11,0l-2.93-.05h-1l-.33,0-1.27-.13c-.83-.09-1.62-.13-2.39-.26l-2.19-.39c-2.79-.49-5.08-1-6.59-1.3l-2.25-.43c-.17,0-.93-.23-2.15-.61a19.38,19.38,0,0,1-2.4-.93,4.18,4.18,0,0,1-.63-.37,8.76,8.76,0,0,1,1-.59c.32-.14.66-.29,1-.42s.82-.31,1.13-.4a22.32,22.32,0,0,1,5.14-.94c1.92-.16,4-.15,6.28-.13l7.1.08c1.25,0,2.49.07,3.83.06s2.69,0,4,0l2-.08.51,0,.59-.06,1.11-.13c.74-.09,1.44-.26,2.18-.39s1.42-.35,2.13-.52c1.41-.39,2.81-.81,4.2-1.23.69-.21,1.4-.43,2.07-.61s1.36-.38,2.1-.54c1.38-.34,2.86-.54,4.31-.82s3-.38,4.48-.53a124.56,124.56,0,0,1,18.83,0c3.23.23,6.5.5,9.74.86l2.42.28,2.35.37c.39.06.78.11,1.18.19l1.21.27,2.36.54c1.68.42,3.26.73,4.67,1.21a6.83,6.83,0,0,1,.89.37A10.72,10.72,0,0,1,149.5,31.91Z" transform="translate(0)"/><path class="cls-2" d="M286.67,62.19c-20.12,0-41.11,0-61.88,0-34,0-68.13,0-98.5,0H0v2H224.79c20.77,0,41.76,0,61.88,0H450v-2H286.67Z" transform="translate(0)"/><polygon class="cls-2" points="20 4.32 0 4.32 0 6.32 20 6.32 430 6.32 450 6.32 450 4.32 430 4.32 20 4.32"/><path class="cls-2" d="M430,57.21l-17.62,0-20.22-.12-26.23-.36c-19.21-.31-41.64-2-65.66-1.47-6,.18-12.11.83-18.29,1.31s-12.44.63-18.75.61L225,57.38l-75.28.24-65.66,0L20,57.21H0v2H20l64.06-.37,65.66,0L225,59l38.24.15c6.3,0,12.56.11,18.74.61s12.29,1.12,18.29,1.31c24,.47,46.45-1.16,65.67-1.47l26.22-.36,20.22-.12L430,59.2h20v-2Z" transform="translate(0)"/><path class="cls-2" d="M430,229.49s-6.41,0-17.62-.36c-5.63-.17-12.38-.23-20.19-.71L366,227l-7.36-.24c-2.5,0-5-.32-7.64.32a31,31,0,0,1-3.93.67c-1.31.08-2.64.06-4,.09l-8.14.15c-11,.2-22.61.23-34.67.21-6,0-12.12.23-18.31.28s-12.45.19-18.76.39l-38.23,1c-12.81.28-25.61.65-38.21.71-12.61.24-25,0-37-.16l-17.68-.69-4.31-.17-1.07-.05H0v3H126.13l.47,0,1.07,0,4.31.17,17.68.69c12,.13,24.5.4,37.11.16,12.63-.06,25.45-.45,38.26-.74s25.62-.72,38.23-.91q9.45-.22,18.73-.24c6.17,0,12.27-.1,18.27,0,12,.21,23.6.46,34.61.91l8.14.32c1.33.07,2.66.08,4,.19a29.3,29.3,0,0,1,3.91.75c2.58.69,5.13.47,7.63.49l7.35-.09,26.24-.88,20.26-.54c11.21-.33,17.62-.37,17.62-.37h20v-3Z" transform="translate(0)"/><path class="cls-2" d="M430,46.56l-64.06-.62-65.67-.63-37-.5c-12.62-.17-25.43,0-38.24.07l-140.94,1L20,46.56H0v2H20l64.06.69,140.94,1c12.81.09,25.62.24,38.24.07l37-.5,65.67-.63L430,48.56h20v-2Z" transform="translate(0)"/><path class="cls-2" d="M399.63,122.73c-8.24,0-18.7-.75-30.82-1.63-15.92-1.14-34-2.44-53.32-2.54-26.59-.34-53.5,2.21-79.52,4.67-37,3.51-75.34,7.14-113,2.38-27-2.88-53.37-2.88-72.62-2.88H0v2H50.37c19.2,0,45.5,0,72.39,2.88a312.93,312.93,0,0,0,39.16,2.29c24.94,0,49.87-2.36,74.24-4.67,26-2.46,52.82-5,79.32-4.66,19.3.1,37.3,1.39,53.19,2.53,12.15.88,22.65,1.63,31,1.63H450v-2H399.63Z" transform="translate(0)"/><polygon class="cls-2" points="20 51.55 0 51.55 0 53.55 20 53.55 430 53.55 450 53.55 450 51.55 430 51.55 20 51.55"/><path class="cls-2" d="M398.13,179.85c-59.25-13.15-115.89-3.41-175.87,6.91-13.54,2.33-27.55,4.74-41.41,6.82-20.58,3.08-40.22,2.9-58.41-.56-6.47-1-12.77-2-18.88-3-20.67-3.3-38.52-6.15-53.19-6.15H0v2H50.37c14.51,0,32.29,2.84,52.88,6.13,6.11,1,12.42,2,18.85,2.94a162.68,162.68,0,0,0,30.3,2.77,194.08,194.08,0,0,0,28.75-2.21c13.88-2.08,27.9-4.49,41.45-6.83,59.77-10.28,116.23-20,175.12-6.92,20.55,4.08,32.16,4.12,32.28,4.12h20v-2H430C429.88,183.93,418.45,183.87,398.13,179.85Z" transform="translate(0)"/><path class="cls-2" d="M398.41,194.84c-60.84-14.26-118.63-3.06-179.81,8.79-8.55,1.66-17.13,3.32-25.81,4.93a187,187,0,0,1-69.26,1.3c-10-1.42-19.51-3.08-28.68-4.69-17.19-3-32-5.61-44.48-5.61H0v2H50.37c12.27,0,27,2.59,44.13,5.59,9.19,1.61,18.68,3.27,28.72,4.7a198.53,198.53,0,0,0,31.83,2.63,186.78,186.78,0,0,0,38.13-3.95q13-2.42,25.8-4.93c61-11.81,118.55-23,179-8.8,20.3,4.71,31.57,4.76,32,4.76h20v-2H430C429.89,199.56,418.46,199.5,398.41,194.84Z" transform="translate(0)"/><path class="cls-2" d="M398.56,199.67c-59.24-14.78-115.83-3.52-175.74,8.4-9.16,1.83-18.62,3.71-28,5.48-22.56,4.69-45.07,5.2-70.83,1.59-10.66-1.49-20.69-3.28-30.38-5-16.7-3-31.11-5.57-43.21-5.57H0v2H50.37c11.92,0,26.26,2.57,42.86,5.54,9.71,1.74,19.75,3.54,30.45,5a233,233,0,0,0,32.44,2.38,189.91,189.91,0,0,0,39.06-4c9.4-1.77,18.87-3.65,28-5.48,59.68-11.87,116.06-23.09,174.87-8.42,20.18,4.88,31.45,4.93,31.92,4.93h20v-2H430C429.89,204.55,418.47,204.48,398.56,199.67Z" transform="translate(0)"/><path class="cls-2" d="M398.19,184.61c-56.24-12.55-112.5-3.13-166.91,6-19.42,3.25-39.5,6.61-59.46,9-17.08,3-33.36.91-49.09-1.13-8-1.18-15.72-2.45-23.18-3.68-19.06-3.14-35.51-5.85-49.18-5.85H0v2H50.37c13.51,0,29.88,2.7,48.85,5.82,7.47,1.23,15.2,2.51,23.24,3.69,10.16,1.31,20.53,2.65,31.23,2.65a104.86,104.86,0,0,0,18.42-1.53c20-2.35,40.06-5.72,59.5-9,54.22-9.08,110.29-18.47,166.16-6,20.5,4.3,32.11,4.35,32.23,4.35h20v-2H430C429.88,188.91,418.45,188.86,398.19,184.61Z" transform="translate(0)"/><path class="cls-2" d="M430,193.4s-1.53,0-4.53-.25-7.34-.77-12.89-1.48c-2.77-.45-5.85-1.08-9.2-1.69l-10.82-2.07c-3.9-.69-8-1.68-12.39-2.34l-13.84-2c-4.84-.49-9.9-.88-15.13-1.35s-10.68-.41-16.25-.64-11.31.17-17.17.24c-5.86.25-11.82.81-17.9,1.21-6.05.73-12.22,1.45-18.42,2.32-6.16,1.1-12.34,2.06-18.67,3.31L225,196.34c-12.68,2.43-25.38,4.6-37.94,6.08a275.46,275.46,0,0,1-36.92,2l-8.89-.37-8.61-.76c-5.79-.77-11.39-1.58-16.86-2.38-11-1.68-21.33-3.26-31-4.59S66.27,194,58.24,193.55c-2-.08-3.88-.07-5.72-.11-1,0-1.78-.05-2.76,0l-2.61,0-9.37.08c-11.32,0-17.78-.11-17.78-.11H0v3H20s6.46-.14,17.78-.11l9.37.08,2.61,0c.79,0,1.76.08,2.66.12,1.83.11,3.75.18,5.7.33,7.69.68,16.45,2.11,25.94,3.91s19.82,3.89,30.83,5.64l8.4,1.33,8.59,1.1,9,.72,9.13.3a244,244,0,0,0,37.62-2.75c12.69-1.8,25.42-4.37,38.08-7.13l37.69-8.29,2.32-.5c.69-.17,1.54-.29,2.3-.43l4.67-.83,9.27-1.63c6.15-.88,12.22-1.6,18.2-2.34,6-.41,11.93-1,17.73-1.25,5.8-.08,11.49-.38,17-.28s10.92.22,16.11.58,10.2.83,15,1.3l13.72,1.92c4.35.64,8.42,1.58,12.27,2.32l10.84,2.17c3.35.64,6.41,1.29,9.21,1.77,5.67.78,10.12,1.46,13.19,1.63s4.74.29,4.74.29h20v-3Z" transform="translate(0)"/><path class="cls-2" d="M398.71,204.42c-29.2-7.94-60.61-9.48-98.8-4.86-21.8,1.84-43.65,6.61-64.77,11.22-36,7.85-73.16,16-110.7,9.59-11.2-1.53-21.67-3.44-31.8-5.29-16.34-3-30.45-5.54-42.27-5.54H0v2H50.37c11.64,0,25.67,2.56,41.91,5.52,10.15,1.85,20.64,3.76,31.85,5.3a171.32,171.32,0,0,0,28.64,2.31c28.08,0,55.78-6,82.8-11.93,21.06-4.6,42.84-9.35,64.55-11.18,38-4.6,69.12-3.07,98.09,4.8,20,4.92,31.66,5.18,31.77,5.18l0-1v1h20v-2H430C429.9,209.53,418.45,209.28,398.71,204.42Z" transform="translate(0)"/><path class="cls-2" d="M27.37,220.33c-8.24.06-16.48,0-24.72.18,8.23.54,16.46.88,24.68,1.33l24.69,1c8.23.34,16.46.55,24.69.82l24.7.62a1.5,1.5,0,0,0,1.52-1.3,1.48,1.48,0,0,0-1.29-1.65c-7.49-1-15-1.89-22.46-2.67s-15-1.58-22.51-2.16-15-1.18-22.57-1.49c-1.88-.09-3.77-.11-5.66-.16s-3.77-.06-5.66,0-3.77,0-5.66.15-3.76.35-5.63.57a56,56,0,0,1,5.64-.14c1.88,0,3.76.06,5.63.19s3.76.2,5.63.37,3.75.27,5.62.47c3.74.35,7.49.67,11.23,1.07l11.21,1.24,16.78,2c-7-.11-14.1-.23-21.16-.27Z" transform="translate(0)"/><path class="cls-2" d="M286,211.05l12.36-.74,13.22-.61c4.5-.19,9.06-.41,13.64-.45l6.84-.24,6.79-.06,6.69-.09,6.53,0c4.29,0,8.43,0,12.36.13s7.66.1,11.1.27,6.6.21,9.4.28,5.24.29,7.26.38c4,.18,6.37.2,6.37.2s-2.23-.62-6.17-1.57c-2-.47-4.37-1.07-7.13-1.66s-5.92-1.08-9.35-1.62c-1.72-.27-3.51-.6-5.37-.84l-5.77-.64-6.11-.66c-2.08-.22-4.22-.27-6.39-.41-4.35-.24-8.84-.58-13.41-.53l-6.9-.06-6.95.13c-4.64.11-9.26.42-13.82.7s-9,.84-13.35,1.22-8.48,1.06-12.41,1.69-7.65,1.24-11.05,1.94-6.52,1.36-9.27,2-5.14,1.27-7.09,1.8c-3.92,1.07-6.11,1.84-6.11,1.84l23-1.67Z" transform="translate(0)"/><path class="cls-2" d="M430,225s-1.61.15-4.61.32-7.4.33-13,.53-12.41.2-20.22.08l-26.23-.27-31-.31c-11-.15-22.62-.16-34.63-.18l-18.3,0c-6.18,0-12.44,0-18.74.13l-38.23.79c-12.82.21-25.62.07-38.23.12s-25-.14-37-.32-23.62-.39-34.63-.36l-31-.16L20,225H0v2H20l64.06-.33,31-.16c11-.1,22.61.12,34.63.23s24.42.3,37,.18,25.43,0,38.24-.25l38.23-.92c6.3-.21,12.56-.2,18.74-.2l18.29,0c12,0,23.62-.05,34.63.06l31,.2,26.23.17c7.81.06,14.61.06,20.22.2s10,.32,13,.54S430,227,430,227h20v-2Z" transform="translate(0)"/><path class="cls-2" d="M235.75,217.61c-8.82.74-19.8,1.67-24.67,3.85a.5.5,0,0,0-.29.51.49.49,0,0,0,.4.43,82.75,82.75,0,0,0,16.45,1.46c7.87,0,16-.75,23.94-1.49,4.5-.42,8.76-.82,12.92-1.07,21-1.3,41.46-2.36,61.59-1.25,19.71,1.08,38.84,1.23,56.58,1.23,4.85,0,10.24.18,15.95.37,14.74.5,31.44,1.08,43.49-1.51l0-.11.46.1.26-1a10.53,10.53,0,0,0-1.26-.24c-.24,0-.49-.07-.77-.13-9.89-2-21.88-2.68-33.48-3.32-5.2-.28-10.1-.55-14.75-.93-17.47-1.45-34.69-1.43-52.93-1.41H333.5c-23.08,0-42.63.33-63,1.89-3.52.27-7.13.48-10.63.68-5.67.33-11.53.66-17.18,1.28C240.73,217.2,238.31,217.4,235.75,217.61Zm24.14-.9c3.51-.21,7.13-.42,10.65-.69,20.37-1.56,39.9-1.88,63-1.88h6.11c18.2,0,35.41,0,52.84,1.4,4.66.38,9.58.65,14.78.94,11.21.61,22.79,1.25,32.43,3.12-11.71,2.05-27.22,1.52-41,1.06-5.72-.2-11.12-.38-16-.38-17.72,0-36.84-.15-56.52-1.23-20.18-1.11-40.71,0-61.71,1.25-4.17.26-8.43.65-13,1.07-13,1.21-26.36,2.46-38.35.38,5.29-1.68,14.86-2.48,22.71-3.14,2.56-.22,5-.42,6.93-.64C248.39,217.37,254.24,217,259.89,216.71Z" transform="translate(0)"/><path class="cls-2" d="M430,127.38c-5.06-.14-10.13-.24-15.19-.27s-10.08,0-15.12,0c-7.87-.51-15.75-.89-23.64-1.29s-15.83-.93-23.76-1.44-15.86-.92-23.8-1.32l-11.93-.32c-4,0-8,0-12,.06s-7.94.34-11.9.57-7.9.53-11.87.89c-7.93.67-15.8,1.86-23.66,3s-15.7,2.39-23.58,3.24c-3.93.47-7.88.85-11.82,1.22s-7.89.77-11.84,1.06c-7.9.67-15.82,1-23.74,1.33-3.95.14-7.91.17-11.87.25s-7.91,0-11.86-.16-7.89-.22-11.83-.56-7.87-.49-11.76-.95l-5.86-.57-5.89-.81c-3.91-.59-7.89-.94-11.85-1.35l-11.89-1.21L91.43,128c-8-.57-15.9-.62-23.86-.79s-15.87-.09-23.79,0L20,127.38H0v4H20l23.78.21,23.76.13c7.9.22,15.8.2,23.68.65l11.82.55L114.82,134c3.93.35,7.85.67,11.8,1.14l5.91.65,6,.41c8,.56,15.95.57,23.91.4,4-.08,7.95-.32,11.92-.48s7.93-.48,11.88-.82c7.92-.66,15.81-1.46,23.69-2.28l23.65-2.47c3.94-.41,7.9-.69,11.85-1l11.88-.64L281,128c7.87-.28,15.86-.87,23.71-1.07,3.94-.06,7.86-.26,11.8-.28l11.84,0,11.86.29c3.95.1,7.9.39,11.85.59s7.9.43,11.85.79,7.89.64,11.83,1.07c7.88.82,15.78,1.61,23.69,2.27h.16c5.06,0,10.12,0,15.19,0s10.12-.13,15.18-.28h20v-4Z" transform="translate(0)"/><path class="cls-2" d="M430,153.33l-4.57-.36c-2.95-.15-7.35-.67-12.95-1.27l-9.28-.87-5.15-.49-5.66-.75c-3.91-.51-8.05-1.13-12.45-1.47s-9-.94-13.85-1.15-9.87-.64-15.09-.72l-7.95-.21h-8.2c-11.09,0-22.77.48-34.83,1.18s-24.49,1.84-37.1,3.15-25.39,2.8-38.16,4.35l-38.1,4.54a279.54,279.54,0,0,1-36.89,2.28l-8.84-.55-4.35-.27c-1.45-.15-2.9-.41-4.33-.61-5.76-.86-11.32-1.7-16.83-2.42l-8.13-1.1c-2.67-.36-5.29-.76-7.9-.93l-15-1.32c-9.66-.5-18.54-1-26.36-1-7.84-.15-14.71-.06-20.32,0L20,153.33H0v2H20l17.68.06c5.64,0,12.44,0,20.28.2,7.85,0,16.63.63,26.23,1.19l14.94,1.4c2.58.19,5.19.6,7.84,1L115,160.3c5.44.74,11.1,1.6,16.82,2.47,1.44.2,2.87.46,4.34.62l4.46.29,9,.59A281.44,281.44,0,0,0,187,162.05l38.14-4.45c12.76-1.52,25.53-3,38.11-4.25s25-2.3,37-3.06,23.63-1.14,34.65-1.09H343l7.89.24c5.19.08,10.18.45,15,.74s9.38.78,13.74,1.17,8.47,1,12.33,1.49l5.61.75c2.05.21,3.65.3,5.39.45l9.29.71c5.62.35,10,.71,13.1.6l4.67,0h20v-2Z" transform="translate(0)"/><path class="cls-2" d="M399.78,143.36c-34.54-5.43-63.4-7.54-90.81-6.66-22.93.74-46.23,3.84-68.76,6.84-38.53,5.13-78.36,10.43-117.84,4.17-26.36-4.36-52.74-4.36-72-4.36H0v2H50.37c19.19,0,45.47,0,71.68,4.34a246.51,246.51,0,0,0,38.74,2.87c26.85,0,53.56-3.56,79.68-7,22.49-3,45.74-6.08,68.56-6.82,27.28-.88,56,1.23,90.6,6.65H450v-2H399.78Z" transform="translate(0)"/><path class="cls-2" d="M430,178.94s-1.56,0-4.57-.27-7.36-.73-12.91-1.4c-2.78-.4-5.86-1-9.22-1.52l-5.17-.88-5.63-1a258.75,258.75,0,0,0-26.26-3.72c-4.84-.35-9.88-.9-15.12-1l-8-.27c-2.7-.07-5.44,0-8.23,0-11.13,0-22.85.73-34.94,1.65-12.07,1.13-24.53,2.5-37.11,4.32s-25.35,3.73-38.09,5.69-25.47,3.87-38,5.55l-9.41,1.2-2.33.29-2.29.2-4.62.4c-6.14.69-12.23.66-18.21.81-3,0-5.92-.24-8.84-.34a76.85,76.85,0,0,1-8.7-.68l-8.56-1.08c-2.73-.34-5.56-.83-8.28-1.23-10.94-1.71-21.35-3.11-30.94-4.45-4.82-.6-9.49-1-13.9-1.53s-8.6-.69-12.52-.84l-5.7-.21-1.36,0-.73,0h-.67l-2.6,0-9.35.12L20,178.93H0v2H20l17.73.22,9.34.11,2.61,0h.66l.61,0,1.37.09,5.69.35c3.92.24,8.11.38,12.43,1s8.9,1,13.67,1.7l30.83,4.81c2.75.42,5.46.9,8.36,1.27l8.56,1.13a84.84,84.84,0,0,0,8.87.74c3,.12,6.07.42,9.12.39,6.1-.12,12.32-.07,18.56-.74l4.7-.38c.8-.07,1.55-.12,2.4-.21l2.33-.3,9.4-1.22c12.61-1.73,25.38-3.67,38.12-5.68s25.46-4,38-5.79,24.93-3.24,36.91-4.48c12-1,23.63-1.88,34.66-1.94,2.76,0,5.48-.12,8.16-.07l7.91.2c5.19,0,10.18.53,15,.82a259.15,259.15,0,0,1,26,3.29l5.6.95,5.29.82c3.37.51,6.44,1,9.25,1.39,5.65.6,10.09,1.12,13.14,1.23s4.68.2,4.69.2h20v-2Z" transform="translate(0)"/><path class="cls-2" d="M399.81,138.38C344.58,128,287.88,133.58,233,139c-22.35,2.21-45.47,4.5-68.11,5.66a181.87,181.87,0,0,1-42.48-2.3c-26.45-4-52.82-4-72.08-4H0v2H50.37c19.19,0,45.48,0,71.76,4a191.76,191.76,0,0,0,31.64,2.72c3.85,0,7.62-.13,11.28-.4,22.67-1.16,45.81-3.45,68.18-5.67,54.7-5.42,111.26-11,166.4-.64H450v-2H430Z" transform="translate(0)"/><path class="cls-2" d="M399.77,133.38c-69.85-9.82-140.51-3.25-206.9,4.32-24.83,3.1-48.48,2.88-70.3-.66-26.58-3.67-52.95-3.67-72.2-3.67H0v2H50.37c19.19,0,45.49,0,71.9,3.64A229.67,229.67,0,0,0,159,141.86a275.1,275.1,0,0,0,34.16-2.18c66.25-7.55,136.76-14.11,206.52-4.31H450v-2H399.77Z" transform="translate(0)"/><path class="cls-2" d="M430,148.34q-7.59.19-15.19.23h-15.1c-7.78-1.55-15.54-3.27-23.43-4.25l-5.91-.89c-2-.29-4-.42-5.95-.63-4-.37-7.93-.85-11.91-1.09s-8-.44-11.95-.59-8-.06-12-.09c-2,0-4-.05-6,0l-6,.23c-4,.17-8,.25-11.93.56-31.82,1.86-63.34,6.21-94.89,9.43-7.89.86-15.79,1.51-23.68,2.21-7.9.53-15.77,1.13-23.73,1.37l-11.89.53-2.93.14-2.93-.1c-2-.08-3.92-.11-5.87-.23-3.87-.48-7.72-.68-11.64-1.53-2-.33-3.88-.75-5.9-1l-5.93-.79-11.86-1.58c-4-.41-7.95-.63-11.92-.93-7.94-.72-15.92-.79-23.88-1.06q-11.91-.15-23.84-.06L20,148.34H0v2H20l23.82.14q11.91.06,23.8.34c7.91.37,15.83.53,23.7,1.34,3.94.35,7.89.6,11.82,1l11.75,1.61,5.87.8c1.92.25,3.89.69,5.84,1,3.85.84,8,1.1,12,1.6,2,.13,4,.17,6,.26l3,.11,3-.13,11.91-.49c7.92-.21,15.88-.8,23.84-1.3,7.93-.68,15.86-1.3,23.77-2.14,15.82-1.55,31.6-3.41,47.38-5.07q11.84-1.27,23.68-2.32l11.84-1,11.86-.74c3.95-.29,7.91-.36,11.86-.51s7.91-.31,11.86-.31,7.91-.14,11.86-.06,7.9.16,11.86.24,7.89.46,11.84.66c2,.14,3.95.2,5.92.41l5.89.65c7.9.7,15.65,2.28,23.46,3.61l.11,0h15.24q7.6,0,15.19.23h20v-2Z" transform="translate(0)"/><path class="cls-2" d="M398.09,170.39c-54.27-11.95-109.43-3.55-162.78,4.57-21.44,3.26-43.61,6.63-65.44,8.64-17.52,2.18-33.15,1.68-47.85-1.55C95.1,177.89,69.66,174,50.37,174H0v2H50.37c19.14,0,44.5,3.93,71.29,8.08a128.76,128.76,0,0,0,27.76,2.91,167.83,167.83,0,0,0,20.67-1.34c21.85-2,44-5.39,65.53-8.66,53.16-8.09,108.13-16.46,162.08-4.59C418.29,175.9,429.88,176,430,176h20v-2H430C429.88,174,418.44,173.9,398.09,170.39Z" transform="translate(0)"/><path class="cls-2" d="M398.09,165.68c-57.1-11.76-112.37-3.53-170.88,5.18-15.8,2.36-32.14,4.79-48.37,6.76-17.27,2.71-35.36,2.37-56.93-1.11C99.57,173,71.26,169,50.37,169H0v2H50.37c20.75,0,49,4,71.23,7.53a211.9,211.9,0,0,0,33.75,2.91,151.69,151.69,0,0,0,23.77-1.8c16.22-2,32.57-4.4,48.39-6.75,58.33-8.68,113.42-16.88,170.22-5.2C418.29,170.92,429.88,171,430,171h20v-2H430C429.88,169,418.43,168.92,398.09,165.68Z" transform="translate(0)"/><path class="cls-2" d="M398.22,155.69c-62.67-11.3-125.78-2.07-186.82,6.85-9.5,1.39-19,2.78-28.5,4.09a246.49,246.49,0,0,1-61-2.06c-24.34-4-50.41-6.26-71.53-6.26H0v2H50.37c21,0,47,2.27,71.22,6.23a262.7,262.7,0,0,0,39.59,3.11c7.4,0,14.7-.34,22-1,9.53-1.33,19.05-2.72,28.55-4.11,60.88-8.89,123.83-18.1,186.22-6.85,20.4,2.62,32,2.65,32.09,2.65h20v-2H430C429.88,158.31,418.42,158.28,398.22,155.69Z" transform="translate(0)"/><path class="cls-2" d="M430,165l-.08-1s-1.54.14-4.54.17a126.44,126.44,0,0,1-13-.72c-5.57-.62-12.29-1.72-20-3.22s-16.55-2.64-26.2-3.55-20.15-1.5-31.26-1.55-22.82.27-34.89,1.23c-24.16,1.8-49.74,5.31-75.24,9.11l-38,5.65c-6.27.91-12.51,1.82-18.66,2.62a108,108,0,0,1-18.19.72c-12-.48-23.5-2.61-34.47-4.24s-21.35-3.07-31-4.09-18.4-2.44-26.36-3.13c-2-.13-3.86-.22-5.7-.27s-3.67,0-5.34,0c-3.39,0-6.52.09-9.33.16C26.44,163.18,20,164,20,164H0v2H20s6.44.79,17.72,1.14c2.82.07,5.94.16,9.34.16s7,.08,11,0c7.74-.15,16.66-.45,26.25.59s20,2.15,30.93,3.86,22.45,3.94,34.61,4.54a109.86,109.86,0,0,0,18.53-.55c6.19-.77,12.41-1.65,18.7-2.52l38.08-5.45c25.5-3.64,51-7.17,75.08-8.89,12-.87,23.67-1.41,34.71-1.48s21.49.37,31.09,1.15,18.38,1.92,26.11,3.19L403,163.56c3.33.61,6.48,1,9.28,1.34,5.62.69,10.08.92,13.12,1.06,2.67.08,4.28,0,4.65,0h20v-2H430v1Z" transform="translate(0)"/></g></svg>